<svg width="456" height="127" viewBox="0 0 456 127" fill="none" xmlns="http://www.w3.org/2000/svg">
<mask id="mask0_4_2" style="mask-type:luminance" maskUnits="userSpaceOnUse" x="0" y="0" width="80" height="127">
<path d="M80 0H0V127H80V0Z" fill="white"/>
</mask>
<g mask="url(#mask0_4_2)">
<path d="M40.0004 58.4949C41.6284 58.4949 42.9481 57.1701 42.9481 55.5359C42.9481 53.9017 41.6284 52.5769 40.0004 52.5769C38.3725 52.5769 37.0527 53.9017 37.0527 55.5359C37.0527 57.1701 38.3725 58.4949 40.0004 58.4949Z" fill="white"/>
<path d="M40.0004 58.4949C41.6284 58.4949 42.9481 57.1701 42.9481 55.5359C42.9481 53.9017 41.6284 52.5769 40.0004 52.5769C38.3725 52.5769 37.0527 53.9017 37.0527 55.5359C37.0527 57.1701 38.3725 58.4949 40.0004 58.4949Z" fill="white"/>
<path d="M40.0004 58.3479C41.6284 58.3479 42.9481 57.0231 42.9481 55.3889C42.9481 53.7547 41.6284 52.4299 40.0004 52.4299C38.3725 52.4299 37.0527 53.7547 37.0527 55.3889C37.0527 57.0231 38.3725 58.3479 40.0004 58.3479Z" fill="white"/>
<path d="M40.0004 58.3479C41.6284 58.3479 42.9481 57.0231 42.9481 55.3889C42.9481 53.7547 41.6284 52.4299 40.0004 52.4299C38.3725 52.4299 37.0527 53.7547 37.0527 55.3889C37.0527 57.0231 38.3725 58.3479 40.0004 58.3479Z" fill="white"/>
<path fill-rule="evenodd" clip-rule="evenodd" d="M16.4806 37.5617H63.2199L64.5801 37.1324C65.0232 35.2448 60.5226 33.8523 59.7713 33.0749C58.1606 31.4078 60.5419 29.4816 59.2511 25.6252C57.5942 20.6472 52.5966 17.5683 59.8869 14.8801C62.0408 14.0833 64.4876 13.5031 66.7301 12.861C68.9411 12.196 71.1148 11.4122 73.242 10.5132C75.8198 9.44949 77.18 8.72619 78.5286 6.93146C79.1656 5.97204 79.5985 4.89096 79.8002 3.75588L79.122 0.0658646C78.0277 -0.386684 75.0261 1.65946 74.3171 2.13521C72.9646 3.03644 71.431 3.98409 69.9321 4.78862C66.9421 6.39382 63.8325 8.19241 60.3839 9.43015C56.9353 10.6679 53.3596 11.9907 50.6854 13.8357C48.9515 15.0309 48.3196 15.7697 49.0093 18.5856L49.7067 24.3681C48.7897 24.0007 44.2506 19.2895 39.9427 19.4327C35.7235 19.5642 33.0686 22.4342 30.1248 24.3681C29.0767 22.5463 31.5967 18.1794 31.1536 16.0289C30.5641 13.1163 19.4784 9.47657 16.6348 8.26977C14.0608 7.17901 8.54306 4.08466 6.20032 2.57229C5.48363 2.11587 1.89245 -0.417628 0.809706 0.0852043C0.0660395 0.429451 -0.0803819 2.34021 0.0390671 3.4039C0.424386 6.65297 2.50511 8.76873 5.53757 10.0761C7.4449 10.8961 9.36765 11.6233 11.3752 12.3079C14.6427 13.4335 21.2355 14.7254 23.1582 16.6323C25.8786 19.3398 19.8715 23.5559 20.2259 28.4643C20.4494 31.5586 21.8404 32.5914 18.5883 33.9993C16.0414 35.1017 13.6986 37.5501 16.4806 37.5501" fill="white"/>
<path fill-rule="evenodd" clip-rule="evenodd" d="M42.8518 92.5715C42.6977 91.7205 42.8826 89.4114 42.898 88.4173L43.2641 75.5371C42.5642 75.0397 41.8303 74.5925 41.0678 74.1988L29.7818 67.5266C29.0343 67.3022 26.2368 69.565 25.5433 70.296C22.8229 73.2279 21.2354 76.1289 21.6284 80.6234C22.2912 88.1427 27.9592 93.171 33.9317 96.9616C36.8138 98.7911 39.827 100.679 42.7092 102.5C45.1907 104.071 48.6277 106.678 48.6586 110.855C48.6894 114.685 46.7898 116.746 45.8034 117.613C45.4241 117.994 44.9608 118.28 44.4509 118.448L44.5742 120.231C45.6222 120.672 47.5758 119.14 48.1037 118.703C51.1863 116.147 52.4308 111.165 51.2556 106.906C49.8993 101.978 44.9942 98.8724 41.0601 96.1803C39.5188 95.1243 33.0339 90.7033 31.9434 89.6048C31.0617 88.7296 30.2974 87.7427 29.67 86.669C28.2212 84.0079 27.8243 81.3351 29.435 78.5231L35.0838 73.5915C35.3111 75.9974 35.3419 78.8867 35.3997 81.3545C35.4652 83.9885 35.5693 86.5723 35.654 89.2064C35.7118 90.9779 35.3612 90.5602 37.0874 91.7476L41.7806 95.1243C42.2122 95.4299 43.8498 96.7373 44.2544 96.7218C45.2446 96.687 48.8782 94.5325 49.6219 94.0142C59.3011 87.3884 58.8695 75.0613 49.4523 67.9327C48.0729 66.8922 46.05 65.8131 44.4432 64.8886C40.2432 62.4944 32.8374 58.2319 29.304 55.8299C26.7031 54.0623 21.5976 50.028 23.1119 46.2916C23.9056 44.3576 25.7051 42.9806 28.0401 43.6536C29.015 43.9321 30.2287 44.5665 31.3346 44.3112C34.0627 43.6807 33.0493 39.6348 27.4814 38.9657C25.209 38.6877 22.914 39.2561 21.0312 40.5631C17.9216 42.6015 16.049 47.2121 17.6288 52.167C18.3994 54.5767 20.5688 57.9921 22.3104 59.6592C26.9535 64.1112 28.3715 64.6179 34.1089 68.0913C35.8043 69.1163 37.5228 70.0485 39.2221 71.0464C40.9214 72.0443 42.69 73.05 44.4162 74.0363C47.1134 75.5564 51.3519 79.1497 50.3848 83.9421C49.5795 87.9802 45.9806 90.5176 42.8595 92.5676" fill="white"/>
<path fill-rule="evenodd" clip-rule="evenodd" d="M44.3867 59.6011L44.8413 40.2266H34.7537C34.6535 41.1007 35.0735 56.3133 35.112 57.5356C35.139 58.4562 36.1331 58.5761 37.5395 59.3961C40.0788 60.8853 43.5736 62.5717 46.1745 64.0376C46.5599 64.2581 48.7369 65.4881 48.9835 65.5384C49.4575 65.6351 51.4688 64.4515 51.9466 64.1846C56.9365 61.3881 62.9128 54.7198 62.9244 48.504C62.9244 43.5298 59.7224 39.5613 54.8558 38.8883C49.9892 38.2152 45.5773 41.6964 47.7197 43.7077C48.6984 44.6244 49.8158 44.315 51.0835 43.8702C52.2395 43.4834 53.434 43.1353 54.6169 43.7309C55.6701 44.2537 56.4747 45.1733 56.8551 46.2892C57.2355 47.4051 57.1609 48.6267 56.6475 49.6876C55.9127 51.0859 54.9248 52.3346 53.7345 53.3698C51.7091 55.1125 49.5221 56.6564 47.2033 57.9804C46.3094 58.5026 45.2767 59.1911 44.379 59.6088" fill="white"/>
<path fill-rule="evenodd" clip-rule="evenodd" d="M42.1472 103.274C41.4074 103.022 37.1381 100.268 35.9551 99.6109C33.7627 98.3887 34.3599 98.1489 33.0228 99.2241C30.2062 101.46 27.6284 103.726 26.8577 107.861C26.294 110.643 26.7452 113.536 28.1293 116.011C28.4289 116.535 28.7636 117.037 29.1311 117.516C29.9018 118.514 32.4025 120.61 33.6702 120.262C34.3753 120.065 34.1942 119.063 33.832 118.606C33.4041 118.232 32.9537 117.885 32.4834 117.566C31.6058 116.774 30.9159 115.794 30.4643 114.7C29.343 111.899 29.4548 109.018 30.9498 106.709C31.9131 105.219 34.7452 102.759 36.194 102.179L36.6872 126.934C38.6138 127.05 39.7004 126.996 41.6964 126.973L42.1472 103.274Z" fill="white"/>
<path fill-rule="evenodd" clip-rule="evenodd" d="M4.37241 12.0486C2.87352 12.5166 4.43021 15.143 5.54763 16.2183C5.79053 16.506 6.05596 16.7737 6.34139 17.0189C8.77661 18.8523 10.6916 19.9508 13.8937 20.8289C15.8202 21.3549 17.7738 21.8074 19.1533 20.5774C20.5327 19.3474 21.049 17.8351 18.8758 16.7095C17.3923 15.9359 15.6391 15.6071 13.8898 15.2126C12.199 14.8383 10.5387 14.3366 8.92303 13.7118C8.21019 13.4295 4.79241 11.9016 4.3647 12.0332" fill="white"/>
<path fill-rule="evenodd" clip-rule="evenodd" d="M7.81051 20.6586C6.18061 21.0841 7.81051 22.902 8.19583 23.254C8.92014 23.9539 9.73231 24.5559 10.6118 25.0449C11.7909 25.7256 15.54 27.5513 17.116 26.4876C17.771 26.0467 18.4453 24.0701 17.6862 23.3933C17.2316 23.0065 15.2433 22.6583 14.438 22.4456C12.8967 22.0588 9.1861 20.295 7.82207 20.6509" fill="white"/>
<path fill-rule="evenodd" clip-rule="evenodd" d="M10.7503 27.149C9.73306 27.3965 10.2532 28.6575 10.6424 29.2145C11.0681 29.8421 11.6111 30.3807 12.2415 30.8003C15.6516 33.2487 18.2332 32.0303 17.7785 29.5587C17.5049 28.0618 15.5437 28.4525 13.2896 27.6944C12.6422 27.4778 11.4631 26.9749 10.7464 27.149" fill="white"/>
<path fill-rule="evenodd" clip-rule="evenodd" d="M49.7486 24.3679C49.2824 24.1358 46.7316 22.1167 45.487 21.3238C41.6338 18.8561 38.4472 18.8677 34.5169 21.3238C33.7463 21.8112 33.0797 22.3063 32.3938 22.8323L30.0819 24.2983C29.5926 22.2947 30.5443 20.2717 30.9874 18.3919C31.6463 15.5954 30.7755 14.9611 29.1032 13.8239C26.5177 12.0678 22.6607 10.6212 19.4702 9.40282C16.2002 8.14733 13.0389 6.62335 10.0183 4.84639C8.47706 3.9645 7.09761 3.15223 5.64111 2.20072L0.793787 0.189386C-0.439234 0.962974 -0.10786 4.83092 1.45268 7.00857C2.64332 8.66405 4.35799 9.63877 6.72 10.5825C8.88549 11.4451 10.9277 12.2226 13.2357 12.9033C15.5438 13.5841 17.8981 14.1604 20.106 14.9843C29.1726 18.3764 19.1851 22.0703 20.422 29.6051C20.6609 31.071 21.1926 32.127 20.1754 33.1404C19.4933 33.8211 18.1832 34.1963 17.3124 34.7572L15.3396 37.2636C16.3607 37.8786 19.6205 37.5962 21.1194 37.5962H58.8422C62.2291 37.5962 61.3506 37.7007 64.6219 37.1592C64.6219 35.3103 61.9478 34.3704 60.3834 33.5117C58.1447 32.2856 59.9403 29.8488 59.6128 27.1954C59.0772 22.6544 53.7906 18.8561 57.3009 16.2104C59.7477 14.3731 65.7201 13.3752 69.0878 12.1452C71.0144 11.4374 72.8793 10.7373 74.7173 9.90566C81.2562 6.98149 80.4239 0.344104 78.9905 0.0385362C77.7459 -0.23222 74.4784 2.11175 73.6692 2.61845C70.3651 4.68903 66.9427 6.56305 63.4197 8.23084C58.453 10.5787 54.3301 11.2169 49.9413 14.4698C49.1706 15.0423 48.6813 15.8816 48.8277 17.3398C49.0435 19.4982 49.7101 22.1554 49.7525 24.3486" fill="white"/>
<path fill-rule="evenodd" clip-rule="evenodd" d="M42.9456 92.5636C42.7298 91.6895 43.2385 77.6411 43.2924 75.4751C41.6933 74.7943 30.442 67.6889 29.8255 67.5961C28.7273 67.4143 25.9723 69.9478 25.533 70.4429C23.3098 72.9145 21.2945 75.6994 21.7107 80.6156C21.8832 82.5705 22.4053 84.4782 23.252 86.2473C24.1074 88.0613 25.113 89.1908 26.1303 90.502C29.024 94.2617 38.3642 99.7851 42.6566 102.438C45.1227 103.955 48.5366 106.55 48.7331 110.561C48.9874 115.783 45.6506 117.674 45.4194 117.945L44.4291 120.188C47.5772 121.036 53.3916 114.661 51.3918 107.146C50.0008 101.905 45.1381 98.9883 41.2733 96.3155C39.3467 94.9695 33.0005 90.8269 31.5864 89.1676C29.0895 86.2434 27.2516 83.2535 29.7985 78.8518C30.4608 77.8053 31.2707 76.8607 32.2029 76.0475C32.9736 75.332 34.2991 74.3224 35.1583 73.6533C35.5436 78.6816 35.6246 84.1586 35.7247 89.214C35.7633 91.1673 35.875 90.9236 37.1812 91.7978C38.2178 92.4901 43.6662 96.7023 44.352 96.7294C45.323 96.7681 48.9258 94.5363 49.654 94.0605C59.1136 87.8718 59.156 75.212 49.5346 67.9829C47.9355 66.7799 41.5662 63.233 39.4045 62.0069C35.9868 60.0729 32.5035 57.9997 29.4094 55.8994C27.4673 54.5804 21.5797 50.3489 23.1672 46.3379C23.8723 44.5509 25.6409 42.9495 28.2341 43.7309C29.2437 44.0364 30.2994 44.6128 31.44 44.3304C34.0563 43.6806 33.1046 39.6502 27.5136 39.0004C25.2462 38.74 22.9616 39.313 21.0826 40.6133C18.1118 42.613 16.0157 47.1888 17.7265 52.2365C18.5472 54.6888 20.6472 58.0384 22.3811 59.6977C23.0631 60.3553 23.8338 61.0012 24.5351 61.6626C27.6446 64.5907 39.5818 71.3325 44.3944 74.013C50.3245 77.3162 53.1373 83.5977 47.5309 89.098C46.1262 90.3966 44.5967 91.5524 42.9649 92.5482" fill="white"/>
<path fill-rule="evenodd" clip-rule="evenodd" d="M44.4552 59.5933L44.8907 40.2536L34.8107 40.2846C34.7182 43.0811 34.8839 46.0865 34.9417 48.9023C34.9764 50.4495 35.0496 56.4719 35.1652 57.5201C35.2808 58.5683 36.7065 58.928 37.5966 59.4541C40.263 61.0013 43.3763 62.5484 46.1699 64.0956C49.4143 65.8671 48.6822 66.1495 52.0692 64.2233C53.857 63.206 56.8587 60.7963 58.0994 59.2297C58.4269 58.8159 58.7583 58.4562 59.0897 58.0384C61.0625 55.5823 62.9429 52.0586 62.9698 48.5736C62.9968 39.2132 52.7049 36.7106 48.189 40.7797C46.3356 42.4506 47.1371 45.2936 51.1829 43.9088C53.649 43.0656 55.722 43.522 56.824 46.1174C58.5849 50.2948 52.8976 54.3368 50.0115 56.3249C49.1446 56.9206 48.2622 57.4157 47.3143 57.9959C46.5745 58.4562 45.2413 59.338 44.4437 59.6127" fill="white"/>
<path fill-rule="evenodd" clip-rule="evenodd" d="M36.2204 102.241L36.756 126.934L41.7305 126.915L42.1967 103.274C41.4646 103.061 39.7692 101.939 39.1142 101.526L34.6021 98.7639C33.8931 98.3771 33.5309 98.8993 33.0801 99.2551C32.1542 99.9832 31.2655 100.758 30.4175 101.576C26.5296 105.386 25.5201 111.292 28.1942 116.027C28.4765 116.538 28.7958 117.028 29.1498 117.492C29.9204 118.487 32.2632 120.494 33.5964 120.328C34.4441 120.223 34.3246 119.221 33.9547 118.738C33.3922 117.999 31.5927 117.434 30.5485 114.75C29.4349 111.88 29.5043 109.192 31.0109 106.782C31.7815 105.568 34.6213 102.837 36.2435 102.257" fill="white"/>
<path fill-rule="evenodd" clip-rule="evenodd" d="M4.20767 12.2303C3.43703 12.7061 3.98804 13.878 4.34639 14.5511C6.74307 19.0263 16.7922 23.1108 19.3237 20.5C22.7916 16.9453 16.8924 15.9319 13.9293 15.2396C12.256 14.8675 10.6126 14.371 9.0126 13.7543C8.19958 13.4294 4.91281 11.8203 4.22694 12.2071" fill="white"/>
<path fill-rule="evenodd" clip-rule="evenodd" d="M7.94182 20.6934C6.30422 21.0802 7.81852 22.8595 8.23081 23.2695C10.0457 25.0797 15.34 27.8723 17.201 26.5147C17.7521 26.1279 18.4996 24.2829 17.7906 23.5093C17.3243 23.0026 15.417 22.7357 14.55 22.5075C13.0974 22.1207 9.302 20.3878 7.94182 20.6934Z" fill="white"/>
<path fill-rule="evenodd" clip-rule="evenodd" d="M10.6423 27.2882C10.5999 27.3075 9.97184 27.2882 10.3071 28.4486C10.443 28.8151 10.6326 29.1593 10.8696 29.4697C12.0795 31.0633 15.3509 33.0553 17.1927 31.7092C17.5151 31.418 17.7424 31.0358 17.8448 30.6128C17.9473 30.1897 17.9201 29.7455 17.7669 29.3382C17.4894 28.5956 16.661 28.4138 15.7054 28.2436C14.8435 28.1141 13.9931 27.9162 13.1623 27.6518C12.4687 27.4158 11.4168 26.8975 10.6462 27.265" fill="white"/>
<path fill-rule="evenodd" clip-rule="evenodd" d="M44.8286 118.378C45.0176 118.378 45.2024 118.435 45.3595 118.54C45.5167 118.645 45.6392 118.795 45.7115 118.971C45.7838 119.146 45.8027 119.339 45.7659 119.525C45.729 119.711 45.638 119.882 45.5043 120.016C45.3707 120.15 45.2004 120.241 45.0151 120.278C44.8297 120.315 44.6376 120.296 44.4629 120.224C44.2883 120.151 44.1391 120.028 44.0341 119.871C43.9291 119.713 43.873 119.527 43.873 119.338C43.873 119.083 43.9737 118.839 44.1529 118.659C44.3321 118.479 44.5752 118.378 44.8286 118.378Z" fill="white"/>
<path fill-rule="evenodd" clip-rule="evenodd" d="M63.459 37.6504H16.7699C16.3152 37.5112 15.8567 37.3719 15.4097 37.2288C14.9705 35.3645 19.4671 33.9875 20.2108 33.2178C21.8253 31.57 19.4402 29.667 20.731 25.8455C21.5556 23.3854 23.2201 21.3896 23.7634 19.6838C24.3067 17.9781 23.7403 16.5508 20.0991 15.2164C17.949 14.4428 15.4983 13.8548 13.2674 13.2244C11.0598 12.5672 8.88864 11.7925 6.76316 10.9036C4.18537 9.84765 2.8252 9.13595 1.47273 7.34896C0.839211 6.40042 0.406426 5.33144 0.201172 4.20819C0.424657 3.00526 0.651995 1.78686 0.883187 0.568456C1.97749 0.112038 4.97142 2.14658 5.68041 2.61073C7.03288 3.50422 8.57031 4.44027 10.0653 5.23706C13.0554 6.82679 16.1611 8.60604 19.6097 9.83991C23.0583 11.0738 26.6187 12.3773 29.2851 14.1836C31.0229 15.3672 31.6548 16.0866 30.9574 18.8832C30.7185 20.7862 30.4808 22.6879 30.2445 24.5884C31.1654 24.2287 35.6929 19.5601 39.997 19.707C44.2355 19.8501 46.8865 22.7047 49.8226 24.5845C50.8784 22.7975 48.3661 18.4616 48.7976 16.3497C49.391 13.468 60.4613 9.87086 63.3011 8.67566C65.8788 7.59651 71.3928 4.53696 73.724 3.04007C74.4368 2.58752 78.028 0.0810946 79.1184 0.580059C79.8621 0.920438 80.0162 2.80799 79.8891 3.86394C79.5037 7.07433 77.4269 9.16689 74.3944 10.4588C72.4909 11.2711 70.572 12.006 68.5607 12.6712C65.297 13.7775 58.7119 15.0578 56.7853 16.9569C55.4251 18.303 56.2497 20.0165 57.3594 21.9852C58.4692 23.954 59.8948 26.24 59.7176 28.6497C59.4941 31.717 58.1031 32.7343 61.3513 34.1267C63.8945 35.2136 66.241 37.6388 63.4552 37.6388" fill="white"/>
<path fill-rule="evenodd" clip-rule="evenodd" d="M75.6351 12.1338C77.1302 12.6018 75.5773 15.2281 74.4599 16.3034C74.2172 16.5889 73.9517 16.8541 73.6661 17.0964C71.2271 18.9298 69.3159 20.0321 66.1062 20.9063C64.1796 21.4323 62.226 21.8887 60.8504 20.6587C59.4748 19.4287 58.9546 17.9164 61.124 16.7908C62.6113 16.0172 64.3645 15.6884 66.1062 15.2939C67.7968 14.9191 69.4571 14.4175 71.0729 13.7931C71.7858 13.5108 75.1997 11.9829 75.6313 12.1145" fill="white"/>
<path fill-rule="evenodd" clip-rule="evenodd" d="M72.1935 20.7477C73.8272 21.1732 72.1935 22.9872 71.8081 23.3431C71.0879 24.0432 70.2811 24.6477 69.4076 25.1417C68.2247 25.8224 64.4717 27.652 62.8957 26.5844C62.2484 26.1396 61.5663 24.167 62.3293 23.4901C62.784 23.1033 64.7761 22.7513 65.5775 22.5424C67.1188 22.1556 70.8333 20.388 72.1935 20.7477Z" fill="white"/>
<path fill-rule="evenodd" clip-rule="evenodd" d="M69.258 27.2342C70.2753 27.4818 69.7551 28.7427 69.362 29.3036C68.9383 29.9328 68.3949 30.4718 67.763 30.8894C64.349 33.334 61.7712 32.104 62.2259 29.644C62.4995 28.1471 64.4569 28.5377 66.7149 27.7796C67.3622 27.5669 68.5375 27.0602 69.258 27.2342Z" fill="white"/>
<path fill-rule="evenodd" clip-rule="evenodd" d="M30.8565 24.3679C31.3112 24.1397 33.8081 22.1439 35.0334 21.3587C38.8172 18.9219 41.9229 18.9335 45.7684 21.3587C46.539 21.8422 47.1748 22.3257 47.8491 22.8478L50.0917 24.3254C50.5618 22.345 49.637 20.3492 49.2054 18.4925C48.5581 15.727 49.4135 15.1004 51.0473 13.9787C53.5827 12.2419 57.3588 10.8108 60.4722 9.60788C63.6859 8.36508 66.7919 6.85791 69.7584 5.10173C71.2611 4.22757 72.6136 3.42691 74.047 2.48313L78.8018 0.502742C80.0117 1.27633 79.6804 5.09399 78.1545 7.2407C76.9985 8.8807 75.307 9.83995 72.9951 10.7721C70.8758 11.6231 68.876 12.3928 66.6103 13.0619C64.3446 13.7311 62.0366 14.3113 59.8827 15.1236C55.4438 16.7984 55.6673 18.5506 56.8502 20.8094C58.0331 23.0683 60.1793 25.8378 59.5782 29.5703C59.3393 31.0169 58.8076 32.0651 59.8171 33.0515C60.4799 33.7206 61.7707 34.0958 62.6184 34.6489C63.258 35.4767 63.9054 36.3005 64.545 37.1283C63.5432 37.7356 60.3527 37.4571 58.8731 37.4571H21.9364C18.615 37.4571 19.4819 37.5615 16.2645 37.0277C16.2645 35.1982 18.8808 34.2815 20.4221 33.4344C22.6146 32.2199 20.8537 29.8101 21.1658 27.1954C21.4201 24.952 22.8458 22.8904 23.7744 21.0686C24.703 19.2468 25.1346 17.6493 23.416 16.3381C21.0155 14.524 15.1663 13.5377 11.8565 12.3232C9.95297 11.6231 8.13812 10.9307 6.33483 10.1068C3.17906 8.66023 1.79191 6.30079 1.37577 4.25465C0.959619 2.2085 1.51448 0.50661 2.20806 0.351893C3.42566 0.0850042 6.62381 2.4019 7.41757 2.90087C10.6535 4.94682 14.0065 6.80018 17.459 8.45136C22.3371 10.7721 26.3868 11.4065 30.6754 14.613C31.4461 15.1816 31.9085 16.0093 31.762 17.4521C31.554 19.5833 30.8989 22.2096 30.8565 24.3795" fill="white"/>
<path fill-rule="evenodd" clip-rule="evenodd" d="M75.8009 12.3193C76.5715 12.7951 76.0167 13.9671 75.6583 14.6401C73.2655 19.1114 63.2163 23.2076 60.6809 20.5967C57.2131 17.0421 63.1123 16.0287 66.0985 15.3402C67.7704 14.9657 69.4125 14.468 71.0114 13.851C71.8282 13.5261 75.115 11.8977 75.8047 12.3039" fill="white"/>
<path fill-rule="evenodd" clip-rule="evenodd" d="M72.0538 20.7786C73.6953 21.1654 72.1733 22.9447 71.7649 23.3585C69.95 25.1648 64.6519 27.9614 62.7908 26.5999C62.2475 26.2131 61.4961 24.3681 62.2051 23.5945C62.6675 23.0878 64.5825 22.8209 65.4456 22.5927C66.8944 22.2059 70.6937 20.473 72.0538 20.7786Z" fill="white"/>
<path fill-rule="evenodd" clip-rule="evenodd" d="M69.359 27.3734C69.3975 27.3966 70.0294 27.3734 69.6942 28.5338C69.5591 28.9 69.3709 29.2441 69.1355 29.555C67.9256 31.1524 64.6542 33.1405 62.8163 31.7945C62.4929 31.5048 62.2648 31.1233 62.1623 30.7006C62.0597 30.2778 62.0876 29.8338 62.2421 29.4273C62.5234 28.6847 63.348 28.5029 64.2997 28.3327C65.1623 28.2062 66.0129 28.0082 66.8429 27.7409C67.5403 27.5049 68.5961 26.9866 69.3628 27.3541" fill="white"/>
<path fill-rule="evenodd" clip-rule="evenodd" d="M2.12066 0.239672C2.5514 0.213093 2.97519 0.358273 3.29988 0.643649C3.62458 0.929024 3.82393 1.33152 3.85459 1.76364C3.82393 2.19576 3.62458 2.59826 3.29988 2.88363C2.97519 3.16901 2.5514 3.31419 2.12066 3.28761C1.68991 3.31419 1.26612 3.16901 0.941427 2.88363C0.616734 2.59826 0.417384 2.19576 0.386719 1.76364C0.417384 1.33152 0.616734 0.929024 0.941427 0.643649C1.26612 0.358273 1.68991 0.213093 2.12066 0.239672Z" fill="white"/>
<path fill-rule="evenodd" clip-rule="evenodd" d="M2.20266 0.212595C3.00027 0.433068 3.53586 1.02486 3.39715 1.54703C3.25843 2.06921 2.4955 2.27421 1.69403 2.05374C0.89257 1.83326 0.356976 1.2376 0.499545 0.727031C0.642113 0.216463 1.40119 -0.000142023 2.20266 0.212595Z" fill="white"/>
<path fill-rule="evenodd" clip-rule="evenodd" d="M17.159 36.4282C18.2186 36.4282 19.0856 36.7028 19.0856 37.0432C19.0856 37.3836 18.2264 37.6582 17.159 37.6582C16.0917 37.6582 15.2324 37.3836 15.2324 37.0432C15.2324 36.7028 16.0917 36.4282 17.159 36.4282Z" fill="white"/>
</g>
<path d="M102.995 32.2417H104.723C107.423 32.2417 109.509 32.7892 110.981 33.8843C112.454 34.9793 113.19 36.5275 113.19 38.5288C113.19 42.8429 110.34 45 104.638 45H98.6055V24.2979H111.689V27.9229H102.995V32.2417ZM102.995 41.4033H104.468C105.95 41.4033 107.035 41.1673 107.725 40.6953C108.414 40.2139 108.758 39.4917 108.758 38.5288C108.758 37.5754 108.409 36.891 107.71 36.4756C107.012 36.0508 105.813 35.8384 104.114 35.8384H102.995V41.4033ZM121.517 34.04H122.961C124.311 34.04 125.321 33.7757 125.991 33.2471C126.661 32.709 126.997 31.9302 126.997 30.9106C126.997 29.8817 126.713 29.1217 126.147 28.6309C125.59 28.14 124.712 27.8945 123.513 27.8945H121.517V34.04ZM131.429 30.7549C131.429 32.9827 130.73 34.6867 129.333 35.8667C127.945 37.0467 125.968 37.6367 123.4 37.6367H121.517V45H117.127V24.2979H123.74C126.251 24.2979 128.158 24.8407 129.46 25.9263C130.773 27.0024 131.429 28.612 131.429 30.7549ZM147.26 45H135.337V24.2979H147.26V27.8945H139.727V32.4399H146.736V36.0366H139.727V41.375H147.26V45ZM160.386 27.6538C158.734 27.6538 157.455 28.2769 156.549 29.5229C155.643 30.7596 155.189 32.4871 155.189 34.7056C155.189 39.3218 156.922 41.6299 160.386 41.6299C161.84 41.6299 163.601 41.2664 165.668 40.5396V44.2212C163.969 44.9292 162.071 45.2832 159.976 45.2832C156.964 45.2832 154.661 44.3722 153.065 42.5503C151.47 40.7189 150.672 38.0946 150.672 34.6772C150.672 32.5249 151.064 30.6416 151.848 29.0273C152.631 27.4036 153.755 26.1623 155.218 25.3032C156.69 24.4347 158.413 24.0005 160.386 24.0005C162.397 24.0005 164.417 24.4867 166.447 25.459L165.031 29.0273C164.257 28.6592 163.478 28.3382 162.694 28.0645C161.911 27.7907 161.141 27.6538 160.386 27.6538ZM178.072 45H173.683V27.9512H168.061V24.2979H183.694V27.9512H178.072V45ZM195.673 27.6538C194.021 27.6538 192.742 28.2769 191.836 29.5229C190.93 30.7596 190.477 32.4871 190.477 34.7056C190.477 39.3218 192.209 41.6299 195.673 41.6299C197.127 41.6299 198.888 41.2664 200.955 40.5396V44.2212C199.256 44.9292 197.358 45.2832 195.263 45.2832C192.251 45.2832 189.948 44.3722 188.353 42.5503C186.757 40.7189 185.959 38.0946 185.959 34.6772C185.959 32.5249 186.351 30.6416 187.135 29.0273C187.918 27.4036 189.042 26.1623 190.505 25.3032C191.978 24.4347 193.7 24.0005 195.673 24.0005C197.684 24.0005 199.704 24.4867 201.734 25.459L200.318 29.0273C199.544 28.6592 198.765 28.3382 197.981 28.0645C197.198 27.7907 196.429 27.6538 195.673 27.6538ZM222.252 45H217.268L209.763 34.5073V45H205.373V24.2979H209.763V34.3232L217.183 24.2979H221.855L214.308 34.2383L222.252 45ZM243.648 34.6206C243.648 38.0474 242.798 40.6812 241.099 42.522C239.4 44.3628 236.964 45.2832 233.792 45.2832C230.621 45.2832 228.185 44.3628 226.486 42.522C224.787 40.6812 223.937 38.0379 223.937 34.5923C223.937 31.1466 224.787 28.5176 226.486 26.7051C228.194 24.8831 230.639 23.9722 233.821 23.9722C237.002 23.9722 239.433 24.8879 241.113 26.7192C242.803 28.5506 243.648 31.1844 243.648 34.6206ZM228.539 34.6206C228.539 36.9334 228.978 38.6751 229.856 39.8457C230.734 41.0163 232.046 41.6016 233.792 41.6016C237.295 41.6016 239.046 39.2746 239.046 34.6206C239.046 29.9572 237.304 27.6255 233.821 27.6255C232.074 27.6255 230.757 28.2155 229.87 29.3955C228.983 30.5661 228.539 32.3078 228.539 34.6206ZM259.861 45H247.938V24.2979H259.861V27.8945H252.328V32.4399H259.337V36.0366H252.328V41.375H259.861V45ZM298.051 34.6206C298.051 38.0474 297.202 40.6812 295.502 42.522C293.803 44.3628 291.368 45.2832 288.196 45.2832C285.024 45.2832 282.588 44.3628 280.889 42.522C279.19 40.6812 278.34 38.0379 278.34 34.5923C278.34 31.1466 279.19 28.5176 280.889 26.7051C282.598 24.8831 285.043 23.9722 288.224 23.9722C291.405 23.9722 293.836 24.8879 295.517 26.7192C297.206 28.5506 298.051 31.1844 298.051 34.6206ZM282.942 34.6206C282.942 36.9334 283.381 38.6751 284.259 39.8457C285.137 41.0163 286.449 41.6016 288.196 41.6016C291.698 41.6016 293.449 39.2746 293.449 34.6206C293.449 29.9572 291.708 27.6255 288.224 27.6255C286.478 27.6255 285.161 28.2155 284.273 29.3955C283.386 30.5661 282.942 32.3078 282.942 34.6206ZM310.328 45H305.938V27.9512H300.317V24.2979H315.95V27.9512H310.328V45ZM316.672 41.3467H318.272C319.641 38.609 320.722 35.8761 321.515 33.1479C322.308 30.4103 322.898 27.4603 323.285 24.2979H335.349V41.3467H338.11V51.0322H333.876V45H320.906V51.0322H316.672V41.3467ZM326.768 27.9512C326.466 30.113 325.961 32.4022 325.253 34.8188C324.554 37.2355 323.766 39.4115 322.888 41.3467H330.974V27.9512H326.768ZM353.233 45H341.311V24.2979H353.233V27.8945H345.7V32.4399H352.709V36.0366H345.7V41.375H353.233V45ZM373.95 45H369.574V27.9512H364.505L364.278 29.8486C363.693 34.6725 363.174 38.0615 362.721 40.0156C362.277 41.9603 361.626 43.3291 360.767 44.1221C359.908 44.915 358.746 45.3021 357.283 45.2832C356.49 45.2832 355.792 45.1794 355.188 44.9717V41.375C355.735 41.5638 356.25 41.6582 356.731 41.6582C357.231 41.6582 357.628 41.4316 357.92 40.9785C358.213 40.516 358.487 39.6663 358.742 38.4297C359.006 37.1836 359.351 35.1493 359.775 32.3267C360.21 29.4946 360.578 26.8184 360.88 24.2979H373.95V45ZM391.098 45H379.175V24.2979H391.098V27.8945H383.564V32.4399H390.574V36.0366H383.564V41.375H391.098V45ZM412.395 45H408.019V36.0649H399.82V45H395.431V24.2979H399.82V32.4116H408.019V24.2979H412.395V45ZM417.634 24.2979H421.584V34.2949L421.528 36.9712L421.386 40.0156H421.471L431.029 24.2979H436.283V45H432.375V35.0596C432.375 33.7285 432.459 31.7555 432.629 29.1406H432.516L422.916 45H417.634V24.2979ZM453.431 45H441.508V24.2979H453.431V27.8945H445.897V32.4399H452.907V36.0366H445.897V41.375H453.431V45Z" fill="white"/>
<path d="M101.789 68.4414H103.219C105.453 68.4414 107.18 68.8945 108.398 69.8008C109.617 70.707 110.227 71.9883 110.227 73.6445C110.227 77.2148 107.867 79 103.148 79H98.1562V61.8672H108.984V64.8672H101.789V68.4414ZM101.789 76.0234H103.008C104.234 76.0234 105.133 75.8281 105.703 75.4375C106.273 75.0391 106.559 74.4414 106.559 73.6445C106.559 72.8555 106.27 72.2891 105.691 71.9453C105.113 71.5938 104.121 71.418 102.715 71.418H101.789V76.0234ZM123.352 79H113.484V61.8672H123.352V64.8438H117.117V68.6055H122.918V71.582H117.117V76H123.352V79ZM140.496 79H136.875V64.8906H132.68L132.492 66.4609C132.008 70.4531 131.578 73.2578 131.203 74.875C130.836 76.4844 130.297 77.6172 129.586 78.2734C128.875 78.9297 127.914 79.25 126.703 79.2344C126.047 79.2344 125.469 79.1484 124.969 78.9766V76C125.422 76.1562 125.848 76.2344 126.246 76.2344C126.66 76.2344 126.988 76.0469 127.23 75.6719C127.473 75.2891 127.699 74.5859 127.91 73.5625C128.129 72.5312 128.414 70.8477 128.766 68.5117C129.125 66.168 129.43 63.9531 129.68 61.8672H140.496V79ZM160.371 70.4102C160.371 73.2461 159.668 75.4258 158.262 76.9492C156.855 78.4727 154.84 79.2344 152.215 79.2344C149.59 79.2344 147.574 78.4727 146.168 76.9492C144.762 75.4258 144.059 73.2383 144.059 70.3867C144.059 67.5352 144.762 65.3594 146.168 63.8594C147.582 62.3516 149.605 61.5977 152.238 61.5977C154.871 61.5977 156.883 62.3555 158.273 63.8711C159.672 65.3867 160.371 67.5664 160.371 70.4102ZM147.867 70.4102C147.867 72.3242 148.23 73.7656 148.957 74.7344C149.684 75.7031 150.77 76.1875 152.215 76.1875C155.113 76.1875 156.562 74.2617 156.562 70.4102C156.562 66.5508 155.121 64.6211 152.238 64.6211C150.793 64.6211 149.703 65.1094 148.969 66.0859C148.234 67.0547 147.867 68.4961 147.867 70.4102ZM167.555 69.9297H168.75C169.867 69.9297 170.703 69.7109 171.258 69.2734C171.812 68.8281 172.09 68.1836 172.09 67.3398C172.09 66.4883 171.855 65.8594 171.387 65.4531C170.926 65.0469 170.199 64.8438 169.207 64.8438H167.555V69.9297ZM175.758 67.2109C175.758 69.0547 175.18 70.4648 174.023 71.4414C172.875 72.418 171.238 72.9062 169.113 72.9062H167.555V79H163.922V61.8672H169.395C171.473 61.8672 173.051 62.3164 174.129 63.2148C175.215 64.1055 175.758 65.4375 175.758 67.2109ZM192.504 61.8672L187.207 73.9844C186.543 75.5078 185.918 76.6016 185.332 77.2656C184.754 77.9297 184.066 78.4258 183.27 78.7539C182.473 79.0742 181.504 79.2344 180.363 79.2344C179.387 79.2344 178.477 79.1172 177.633 78.8828V75.7656C178.32 76.0469 179.176 76.1875 180.199 76.1875C180.848 76.1875 181.371 76.0391 181.77 75.7422C182.168 75.4375 182.5 74.9141 182.766 74.1719L176.836 61.8672H180.68L184.898 71.418H185.016L185.227 70.832L188.766 61.8672H192.504ZM201.949 64.6445C200.582 64.6445 199.523 65.1602 198.773 66.1914C198.023 67.2148 197.648 68.6445 197.648 70.4805C197.648 74.3008 199.082 76.2109 201.949 76.2109C203.152 76.2109 204.609 75.9102 206.32 75.3086V78.3555C204.914 78.9414 203.344 79.2344 201.609 79.2344C199.117 79.2344 197.211 78.4805 195.891 76.9727C194.57 75.457 193.91 73.2852 193.91 70.457C193.91 68.6758 194.234 67.1172 194.883 65.7812C195.531 64.4375 196.461 63.4102 197.672 62.6992C198.891 61.9805 200.316 61.6211 201.949 61.6211C203.613 61.6211 205.285 62.0234 206.965 62.8281L205.793 65.7812C205.152 65.4766 204.508 65.2109 203.859 64.9844C203.211 64.7578 202.574 64.6445 201.949 64.6445ZM217.254 64.6445C215.887 64.6445 214.828 65.1602 214.078 66.1914C213.328 67.2148 212.953 68.6445 212.953 70.4805C212.953 74.3008 214.387 76.2109 217.254 76.2109C218.457 76.2109 219.914 75.9102 221.625 75.3086V78.3555C220.219 78.9414 218.648 79.2344 216.914 79.2344C214.422 79.2344 212.516 78.4805 211.195 76.9727C209.875 75.457 209.215 73.2852 209.215 70.457C209.215 68.6758 209.539 67.1172 210.188 65.7812C210.836 64.4375 211.766 63.4102 212.977 62.6992C214.195 61.9805 215.621 61.6211 217.254 61.6211C218.918 61.6211 220.59 62.0234 222.27 62.8281L221.098 65.7812C220.457 65.4766 219.812 65.2109 219.164 64.9844C218.516 64.7578 217.879 64.6445 217.254 64.6445ZM239.25 79H235.125L228.914 70.3164V79H225.281V61.8672H228.914V70.1641L235.055 61.8672H238.922L232.676 70.0938L239.25 79ZM256.957 70.4102C256.957 73.2461 256.254 75.4258 254.848 76.9492C253.441 78.4727 251.426 79.2344 248.801 79.2344C246.176 79.2344 244.16 78.4727 242.754 76.9492C241.348 75.4258 240.645 73.2383 240.645 70.3867C240.645 67.5352 241.348 65.3594 242.754 63.8594C244.168 62.3516 246.191 61.5977 248.824 61.5977C251.457 61.5977 253.469 62.3555 254.859 63.8711C256.258 65.3867 256.957 67.5664 256.957 70.4102ZM244.453 70.4102C244.453 72.3242 244.816 73.7656 245.543 74.7344C246.27 75.7031 247.355 76.1875 248.801 76.1875C251.699 76.1875 253.148 74.2617 253.148 70.4102C253.148 66.5508 251.707 64.6211 248.824 64.6211C247.379 64.6211 246.289 65.1094 245.555 66.0859C244.82 67.0547 244.453 68.4961 244.453 70.4102ZM260.508 61.8672H263.777V70.1406L263.73 72.3555L263.613 74.875H263.684L271.594 61.8672H275.941V79H272.707V70.7734C272.707 69.6719 272.777 68.0391 272.918 65.875H272.824L264.879 79H260.508V61.8672ZM273.902 56.3008C273.754 57.7617 273.203 58.8281 272.25 59.5C271.297 60.1641 269.922 60.4961 268.125 60.4961C266.273 60.4961 264.902 60.1758 264.012 59.5352C263.129 58.8945 262.633 57.8164 262.523 56.3008H265.723C265.777 57.1055 265.977 57.6719 266.32 58C266.672 58.3203 267.297 58.4805 268.195 58.4805C268.984 58.4805 269.57 58.3047 269.953 57.9531C270.344 57.5938 270.582 57.043 270.668 56.3008H273.902ZM293.109 79H289.477V64.8906H284.824V61.8672H297.762V64.8906H293.109V79ZM315.949 70.4102C315.949 73.2461 315.246 75.4258 313.84 76.9492C312.434 78.4727 310.418 79.2344 307.793 79.2344C305.168 79.2344 303.152 78.4727 301.746 76.9492C300.34 75.4258 299.637 73.2383 299.637 70.3867C299.637 67.5352 300.34 65.3594 301.746 63.8594C303.16 62.3516 305.184 61.5977 307.816 61.5977C310.449 61.5977 312.461 62.3555 313.852 63.8711C315.25 65.3867 315.949 67.5664 315.949 70.4102ZM303.445 70.4102C303.445 72.3242 303.809 73.7656 304.535 74.7344C305.262 75.7031 306.348 76.1875 307.793 76.1875C310.691 76.1875 312.141 74.2617 312.141 70.4102C312.141 66.5508 310.699 64.6211 307.816 64.6211C306.371 64.6211 305.281 65.1094 304.547 66.0859C303.812 67.0547 303.445 68.4961 303.445 70.4102ZM323.133 69.9297H324.328C325.445 69.9297 326.281 69.7109 326.836 69.2734C327.391 68.8281 327.668 68.1836 327.668 67.3398C327.668 66.4883 327.434 65.8594 326.965 65.4531C326.504 65.0469 325.777 64.8438 324.785 64.8438H323.133V69.9297ZM331.336 67.2109C331.336 69.0547 330.758 70.4648 329.602 71.4414C328.453 72.418 326.816 72.9062 324.691 72.9062H323.133V79H319.5V61.8672H324.973C327.051 61.8672 328.629 62.3164 329.707 63.2148C330.793 64.1055 331.336 65.4375 331.336 67.2109ZM345.398 61.8672V64.8672H338.203V79H334.57V61.8672H345.398ZM363.598 70.4102C363.598 73.2461 362.895 75.4258 361.488 76.9492C360.082 78.4727 358.066 79.2344 355.441 79.2344C352.816 79.2344 350.801 78.4727 349.395 76.9492C347.988 75.4258 347.285 73.2383 347.285 70.3867C347.285 67.5352 347.988 65.3594 349.395 63.8594C350.809 62.3516 352.832 61.5977 355.465 61.5977C358.098 61.5977 360.109 62.3555 361.5 63.8711C362.898 65.3867 363.598 67.5664 363.598 70.4102ZM351.094 70.4102C351.094 72.3242 351.457 73.7656 352.184 74.7344C352.91 75.7031 353.996 76.1875 355.441 76.1875C358.34 76.1875 359.789 74.2617 359.789 70.4102C359.789 66.5508 358.348 64.6211 355.465 64.6211C354.02 64.6211 352.93 65.1094 352.195 66.0859C351.461 67.0547 351.094 68.4961 351.094 70.4102ZM367.148 61.8672H372.48C374.91 61.8672 376.672 62.2148 377.766 62.9102C378.867 63.5977 379.418 64.6953 379.418 66.2031C379.418 67.2266 379.176 68.0664 378.691 68.7227C378.215 69.3789 377.578 69.7734 376.781 69.9062V70.0234C377.867 70.2656 378.648 70.7188 379.125 71.3828C379.609 72.0469 379.852 72.9297 379.852 74.0312C379.852 75.5938 379.285 76.8125 378.152 77.6875C377.027 78.5625 375.496 79 373.559 79H367.148V61.8672ZM370.781 68.6523H372.891C373.875 68.6523 374.586 68.5 375.023 68.1953C375.469 67.8906 375.691 67.3867 375.691 66.6836C375.691 66.0273 375.449 65.5586 374.965 65.2773C374.488 64.9883 373.73 64.8438 372.691 64.8438H370.781V68.6523ZM370.781 71.5352V76H373.148C374.148 76 374.887 75.8086 375.363 75.4258C375.84 75.043 376.078 74.457 376.078 73.668C376.078 72.2461 375.062 71.5352 373.031 71.5352H370.781ZM398.824 70.4102C398.824 73.2461 398.121 75.4258 396.715 76.9492C395.309 78.4727 393.293 79.2344 390.668 79.2344C388.043 79.2344 386.027 78.4727 384.621 76.9492C383.215 75.4258 382.512 73.2383 382.512 70.3867C382.512 67.5352 383.215 65.3594 384.621 63.8594C386.035 62.3516 388.059 61.5977 390.691 61.5977C393.324 61.5977 395.336 62.3555 396.727 63.8711C398.125 65.3867 398.824 67.5664 398.824 70.4102ZM386.32 70.4102C386.32 72.3242 386.684 73.7656 387.41 74.7344C388.137 75.7031 389.223 76.1875 390.668 76.1875C393.566 76.1875 395.016 74.2617 395.016 70.4102C395.016 66.5508 393.574 64.6211 390.691 64.6211C389.246 64.6211 388.156 65.1094 387.422 66.0859C386.688 67.0547 386.32 68.4961 386.32 70.4102ZM400.934 74.0312V71.1016H407.227V74.0312H400.934ZM111.715 106H108.094V91.8906H101.789V106H98.1562V88.8672H111.715V106ZM119.672 96.9297H120.867C121.984 96.9297 122.82 96.7109 123.375 96.2734C123.93 95.8281 124.207 95.1836 124.207 94.3398C124.207 93.4883 123.973 92.8594 123.504 92.4531C123.043 92.0469 122.316 91.8438 121.324 91.8438H119.672V96.9297ZM127.875 94.2109C127.875 96.0547 127.297 97.4648 126.141 98.4414C124.992 99.418 123.355 99.9062 121.23 99.9062H119.672V106H116.039V88.8672H121.512C123.59 88.8672 125.168 89.3164 126.246 90.2148C127.332 91.1055 127.875 92.4375 127.875 94.2109ZM146.66 97.4102C146.66 100.246 145.957 102.426 144.551 103.949C143.145 105.473 141.129 106.234 138.504 106.234C135.879 106.234 133.863 105.473 132.457 103.949C131.051 102.426 130.348 100.238 130.348 97.3867C130.348 94.5352 131.051 92.3594 132.457 90.8594C133.871 89.3516 135.895 88.5977 138.527 88.5977C141.16 88.5977 143.172 89.3555 144.562 90.8711C145.961 92.3867 146.66 94.5664 146.66 97.4102ZM134.156 97.4102C134.156 99.3242 134.52 100.766 135.246 101.734C135.973 102.703 137.059 103.188 138.504 103.188C141.402 103.188 142.852 101.262 142.852 97.4102C142.852 93.5508 141.41 91.6211 138.527 91.6211C137.082 91.6211 135.992 92.1094 135.258 93.0859C134.523 94.0547 134.156 95.4961 134.156 97.4102ZM157.465 106L153.34 92.5586H153.234C153.383 95.293 153.457 97.1172 153.457 98.0312V106H150.211V88.8672H155.156L159.211 101.969H159.281L163.582 88.8672H168.527V106H165.141V97.8906C165.141 97.5078 165.145 97.0664 165.152 96.5664C165.168 96.0664 165.223 94.7383 165.316 92.582H165.211L160.793 106H157.465ZM184.57 100.645C184.57 102.426 183.977 103.766 182.789 104.664C181.609 105.555 179.859 106 177.539 106H172.852V88.8672H176.484V95.4414H177.656C179.852 95.4414 181.551 95.8984 182.754 96.8125C183.965 97.7188 184.57 98.9961 184.57 100.645ZM176.484 103.023H177.434C178.629 103.023 179.504 102.828 180.059 102.438C180.613 102.039 180.891 101.441 180.891 100.645C180.891 99.8477 180.621 99.2773 180.082 98.9336C179.551 98.5898 178.613 98.418 177.27 98.418H176.484V103.023ZM190.277 106H186.656V88.8672H190.277V106ZM207.211 102.977H212.531V88.8672H216.152V106H194.602V88.8672H198.234V102.977H203.555V88.8672H207.211V102.977ZM234.035 106H230.414V91.8906H226.219L226.031 93.4609C225.547 97.4531 225.117 100.258 224.742 101.875C224.375 103.484 223.836 104.617 223.125 105.273C222.414 105.93 221.453 106.25 220.242 106.234C219.586 106.234 219.008 106.148 218.508 105.977V103C218.961 103.156 219.387 103.234 219.785 103.234C220.199 103.234 220.527 103.047 220.77 102.672C221.012 102.289 221.238 101.586 221.449 100.562C221.668 99.5312 221.953 97.8477 222.305 95.5117C222.664 93.168 222.969 90.9531 223.219 88.8672H234.035V106ZM248.227 106H238.359V88.8672H248.227V91.8438H241.992V95.6055H247.793V98.582H241.992V103H248.227V106ZM265.852 106H262.23V98.6055H255.445V106H251.812V88.8672H255.445V95.582H262.23V88.8672H265.852V106ZM284.227 106H280.605V98.6055H273.82V106H270.188V88.8672H273.82V95.582H280.605V88.8672H284.227V106ZM304.113 97.4102C304.113 100.246 303.41 102.426 302.004 103.949C300.598 105.473 298.582 106.234 295.957 106.234C293.332 106.234 291.316 105.473 289.91 103.949C288.504 102.426 287.801 100.238 287.801 97.3867C287.801 94.5352 288.504 92.3594 289.91 90.8594C291.324 89.3516 293.348 88.5977 295.98 88.5977C298.613 88.5977 300.625 89.3555 302.016 90.8711C303.414 92.3867 304.113 94.5664 304.113 97.4102ZM291.609 97.4102C291.609 99.3242 291.973 100.766 292.699 101.734C293.426 102.703 294.512 103.188 295.957 103.188C298.855 103.188 300.305 101.262 300.305 97.4102C300.305 93.5508 298.863 91.6211 295.98 91.6211C294.535 91.6211 293.445 92.1094 292.711 93.0859C291.977 94.0547 291.609 95.4961 291.609 97.4102ZM307.664 88.8672H310.934V97.1406L310.887 99.3555L310.77 101.875H310.84L318.75 88.8672H323.098V106H319.863V97.7734C319.863 96.6719 319.934 95.0391 320.074 92.875H319.98L312.035 106H307.664V88.8672ZM321.059 83.3008C320.91 84.7617 320.359 85.8281 319.406 86.5C318.453 87.1641 317.078 87.4961 315.281 87.4961C313.43 87.4961 312.059 87.1758 311.168 86.5352C310.285 85.8945 309.789 84.8164 309.68 83.3008H312.879C312.934 84.1055 313.133 84.6719 313.477 85C313.828 85.3203 314.453 85.4805 315.352 85.4805C316.141 85.4805 316.727 85.3047 317.109 84.9531C317.5 84.5938 317.738 84.043 317.824 83.3008H321.059ZM347.215 106H343.594V91.8906H337.289V106H333.656V88.8672H347.215V106ZM362.027 106L360.785 101.922H354.539L353.297 106H349.383L355.43 88.7969H359.871L365.941 106H362.027ZM359.918 98.875C358.77 95.1797 358.121 93.0898 357.973 92.6055C357.832 92.1211 357.73 91.7383 357.668 91.457C357.41 92.457 356.672 94.9297 355.453 98.875H359.918ZM381.668 106H378.047V91.8906H373.852L373.664 93.4609C373.18 97.4531 372.75 100.258 372.375 101.875C372.008 103.484 371.469 104.617 370.758 105.273C370.047 105.93 369.086 106.25 367.875 106.234C367.219 106.234 366.641 106.148 366.141 105.977V103C366.594 103.156 367.02 103.234 367.418 103.234C367.832 103.234 368.16 103.047 368.402 102.672C368.645 102.289 368.871 101.586 369.082 100.562C369.301 99.5312 369.586 97.8477 369.938 95.5117C370.297 93.168 370.602 90.9531 370.852 88.8672H381.668V106ZM396.48 106L395.238 101.922H388.992L387.75 106H383.836L389.883 88.7969H394.324L400.395 106H396.48ZM394.371 98.875C393.223 95.1797 392.574 93.0898 392.426 92.6055C392.285 92.1211 392.184 91.7383 392.121 91.457C391.863 92.457 391.125 94.9297 389.906 98.875H394.371ZM409.172 106H405.539V91.8906H400.887V88.8672H413.824V91.8906H409.172V106ZM428.18 100.645C428.18 102.426 427.586 103.766 426.398 104.664C425.219 105.555 423.469 106 421.148 106H416.461V88.8672H420.094V95.4414H421.266C423.461 95.4414 425.16 95.8984 426.363 96.8125C427.574 97.7188 428.18 98.9961 428.18 100.645ZM420.094 103.023H421.043C422.238 103.023 423.113 102.828 423.668 102.438C424.223 102.039 424.5 101.441 424.5 100.645C424.5 99.8477 424.23 99.2773 423.691 98.9336C423.16 98.5898 422.223 98.418 420.879 98.418H420.094V103.023ZM433.887 106H430.266V88.8672H433.887V106Z" fill="white"/>
</svg>
