<svg width="76" height="76" viewBox="0 0 76 76" fill="none" xmlns="http://www.w3.org/2000/svg">
<rect width="76" height="76" rx="8" fill="white"/>
<path d="M12.1797 6.5625H16.5547L24.7773 28.4961L32.9805 6.5625H37.3555L26.4961 35H23.0195L12.1797 6.5625ZM10.1875 6.5625H14.3477L15.0703 25.5469V35H10.1875V6.5625ZM35.1875 6.5625H39.3672V35H34.4648V25.5469L35.1875 6.5625ZM63.8594 18.8477V22.7539H51.9648V18.8477H63.8594ZM44.25 25.7422H49.1328C49.276 26.9922 49.569 28.0469 50.0117 28.9062C50.4674 29.7656 51.125 30.4167 51.9844 30.8594C52.8568 31.3021 53.9961 31.5234 55.4023 31.5234C56.5352 31.5234 57.5117 31.2956 58.332 30.8398C59.1654 30.3841 59.849 29.7396 60.3828 28.9062C60.9167 28.0599 61.3138 27.0573 61.5742 25.8984C61.8346 24.7266 61.9648 23.418 61.9648 21.9727V19.5898C61.9648 18.3789 61.8737 17.2786 61.6914 16.2891C61.5091 15.2865 61.2292 14.401 60.8516 13.6328C60.487 12.8646 60.0312 12.2201 59.4844 11.6992C58.9505 11.1654 58.3255 10.7617 57.6094 10.4883C56.8932 10.2148 56.0924 10.0781 55.207 10.0781C53.8398 10.0781 52.7331 10.3125 51.8867 10.7812C51.0404 11.237 50.4023 11.9076 49.9727 12.793C49.543 13.6654 49.2565 14.7201 49.1133 15.957H44.2305C44.4258 14.043 44.9596 12.3503 45.832 10.8789C46.7044 9.40755 47.9154 8.25521 49.4648 7.42188C51.0273 6.58854 52.9414 6.17188 55.207 6.17188C56.9909 6.17188 58.5924 6.49089 60.0117 7.12891C61.444 7.75391 62.668 8.65885 63.6836 9.84375C64.6992 11.0156 65.474 12.4284 66.0078 14.082C66.5547 15.7357 66.8281 17.5846 66.8281 19.6289V21.9727C66.8281 24.0169 66.5612 25.8659 66.0273 27.5195C65.5065 29.1732 64.7448 30.5859 63.7422 31.7578C62.7396 32.9297 61.5352 33.8281 60.1289 34.4531C58.7227 35.0781 57.1471 35.3906 55.4023 35.3906C53.0977 35.3906 51.1445 34.9805 49.543 34.1602C47.9544 33.3268 46.7174 32.181 45.832 30.7227C44.9466 29.2643 44.4193 27.6042 44.25 25.7422Z" fill="#2D4A8A"/>
<path d="M11.2617 40.5625H15.6367L23.8594 62.4961L32.0625 40.5625H36.4375L25.5781 69H22.1016L11.2617 40.5625ZM9.26953 40.5625H13.4297L14.1523 59.5469V69H9.26953V40.5625ZM34.2695 40.5625H38.4492V69H33.5469V59.5469L34.2695 40.5625ZM49.1133 61.0117L61.7305 40.5625H66.6328V69H61.7305V48.5312L49.1133 69H44.2305V40.5625H49.1133V61.0117Z" fill="#2D4A8A"/>
</svg>
