<svg width="240" height="76" viewBox="0 0 240 76" fill="none" xmlns="http://www.w3.org/2000/svg">
<rect width="76" height="76" rx="8" fill="white"/>
<path d="M87.1484 6.625V18H85.1953V6.625H87.1484ZM93.9922 6.625L89.3672 13.1094H86.5938L86.3281 11.4062H88.2812L91.5938 6.625H93.9922ZM91.9922 18L88.3125 12.8125L89.5781 11.3047L94.3438 18H91.9922ZM100.047 16.3047V12.2734C100.047 11.9714 99.9922 11.7109 99.8828 11.4922C99.7734 11.2734 99.6068 11.1042 99.3828 10.9844C99.1641 10.8646 98.888 10.8047 98.5547 10.8047C98.2474 10.8047 97.9818 10.8568 97.7578 10.9609C97.5339 11.0651 97.3594 11.2057 97.2344 11.3828C97.1094 11.5599 97.0469 11.7604 97.0469 11.9844H95.1719C95.1719 11.651 95.2526 11.3281 95.4141 11.0156C95.5755 10.7031 95.8099 10.4245 96.1172 10.1797C96.4245 9.9349 96.7917 9.74219 97.2188 9.60156C97.6458 9.46094 98.125 9.39062 98.6562 9.39062C99.2917 9.39062 99.8542 9.4974 100.344 9.71094C100.839 9.92448 101.227 10.2474 101.508 10.6797C101.794 11.1068 101.938 11.6432 101.938 12.2891V16.0469C101.938 16.4323 101.964 16.7786 102.016 17.0859C102.073 17.388 102.154 17.651 102.258 17.875V18H100.328C100.24 17.7969 100.169 17.5391 100.117 17.2266C100.07 16.9089 100.047 16.6016 100.047 16.3047ZM100.32 12.8594L100.336 14.0234H98.9844C98.6354 14.0234 98.3281 14.0573 98.0625 14.125C97.7969 14.1875 97.5755 14.2812 97.3984 14.4062C97.2214 14.5312 97.0885 14.6823 97 14.8594C96.9115 15.0365 96.8672 15.237 96.8672 15.4609C96.8672 15.6849 96.9193 15.8906 97.0234 16.0781C97.1276 16.2604 97.2786 16.4036 97.4766 16.5078C97.6797 16.612 97.9245 16.6641 98.2109 16.6641C98.5964 16.6641 98.9323 16.5859 99.2188 16.4297C99.5104 16.2682 99.7396 16.0729 99.9062 15.8438C100.073 15.6094 100.161 15.388 100.172 15.1797L100.781 16.0156C100.719 16.2292 100.612 16.4583 100.461 16.7031C100.31 16.9479 100.112 17.1823 99.8672 17.4062C99.6276 17.625 99.3385 17.8047 99 17.9453C98.6667 18.0859 98.2812 18.1562 97.8438 18.1562C97.2917 18.1562 96.7995 18.0469 96.3672 17.8281C95.9349 17.6042 95.5964 17.3047 95.3516 16.9297C95.1068 16.5495 94.9844 16.1198 94.9844 15.6406C94.9844 15.1927 95.0677 14.7969 95.2344 14.4531C95.4062 14.1042 95.6562 13.8125 95.9844 13.5781C96.3177 13.3438 96.724 13.1667 97.2031 13.0469C97.6823 12.9219 98.2292 12.8594 98.8438 12.8594H100.32ZM113.945 13.875V14.0391C113.945 14.638 113.878 15.1901 113.742 15.6953C113.612 16.1953 113.417 16.6302 113.156 17C112.896 17.3698 112.573 17.6562 112.188 17.8594C111.807 18.0625 111.365 18.1641 110.859 18.1641C110.417 18.1641 110.031 18.0885 109.703 17.9375C109.375 17.7865 109.099 17.5755 108.875 17.3047C108.651 17.0286 108.471 16.7057 108.336 16.3359C108.201 15.9609 108.102 15.5495 108.039 15.1016V12.6562C108.102 12.1771 108.198 11.7396 108.328 11.3438C108.464 10.9427 108.643 10.5964 108.867 10.3047C109.096 10.013 109.372 9.78906 109.695 9.63281C110.018 9.47135 110.401 9.39062 110.844 9.39062C111.25 9.39062 111.617 9.46354 111.945 9.60938C112.273 9.75 112.562 9.95312 112.812 10.2188C113.062 10.4792 113.271 10.7943 113.438 11.1641C113.604 11.5286 113.729 11.9401 113.812 12.3984C113.901 12.8568 113.945 13.349 113.945 13.875ZM112.062 14.0391V13.875C112.062 13.5469 112.042 13.2344 112 12.9375C111.958 12.6406 111.893 12.3698 111.805 12.125C111.721 11.875 111.612 11.6589 111.477 11.4766C111.341 11.2891 111.177 11.1458 110.984 11.0469C110.797 10.9427 110.578 10.8906 110.328 10.8906C109.99 10.8906 109.708 10.9479 109.484 11.0625C109.266 11.1719 109.099 11.3281 108.984 11.5312C108.875 11.7292 108.805 11.9583 108.773 12.2188V15.5469C108.81 15.7656 108.885 15.9583 109 16.125C109.12 16.2917 109.289 16.4245 109.508 16.5234C109.727 16.6172 110.005 16.6641 110.344 16.6641C110.656 16.6641 110.919 16.599 111.133 16.4688C111.352 16.3333 111.529 16.1458 111.664 15.9062C111.805 15.6667 111.906 15.388 111.969 15.0703C112.031 14.7526 112.062 14.4089 112.062 14.0391ZM103.586 14.0391V13.875C103.586 13.349 103.628 12.8568 103.711 12.3984C103.794 11.9401 103.919 11.5286 104.086 11.1641C104.258 10.7943 104.469 10.4792 104.719 10.2188C104.969 9.95312 105.258 9.75 105.586 9.60938C105.914 9.46354 106.281 9.39062 106.688 9.39062C107.125 9.39062 107.503 9.47135 107.82 9.63281C108.138 9.78906 108.406 10.013 108.625 10.3047C108.849 10.5964 109.026 10.9427 109.156 11.3438C109.292 11.7396 109.391 12.1771 109.453 12.6562V15.0078C109.396 15.4661 109.299 15.888 109.164 16.2734C109.029 16.6589 108.852 16.9922 108.633 17.2734C108.414 17.5547 108.143 17.7734 107.82 17.9297C107.497 18.0859 107.115 18.1641 106.672 18.1641C106.172 18.1641 105.729 18.0625 105.344 17.8594C104.958 17.6562 104.635 17.3698 104.375 17C104.115 16.6302 103.917 16.1953 103.781 15.6953C103.651 15.1901 103.586 14.638 103.586 14.0391ZM105.469 13.875V14.0391C105.469 14.4089 105.497 14.7526 105.555 15.0703C105.617 15.388 105.714 15.6667 105.844 15.9062C105.974 16.1406 106.146 16.3255 106.359 16.4609C106.573 16.5964 106.836 16.6641 107.148 16.6641C107.492 16.6641 107.773 16.612 107.992 16.5078C108.211 16.4036 108.378 16.2604 108.492 16.0781C108.612 15.8958 108.69 15.6875 108.727 15.4531V12.2188C108.695 11.9583 108.622 11.7292 108.508 11.5312C108.393 11.3281 108.227 11.1719 108.008 11.0625C107.789 10.9479 107.508 10.8906 107.164 10.8906C106.852 10.8906 106.586 10.9688 106.367 11.125C106.154 11.2812 105.979 11.4974 105.844 11.7734C105.714 12.0443 105.617 12.362 105.555 12.7266C105.497 13.0859 105.469 13.4688 105.469 13.875ZM107.781 21.25V6H109.672V21.25H107.781ZM119.289 18.1562C118.664 18.1562 118.099 18.0547 117.594 17.8516C117.094 17.6432 116.667 17.3542 116.312 16.9844C115.964 16.6146 115.695 16.1797 115.508 15.6797C115.32 15.1797 115.227 14.6406 115.227 14.0625V13.75C115.227 13.0885 115.323 12.4896 115.516 11.9531C115.708 11.4167 115.977 10.9583 116.32 10.5781C116.664 10.1927 117.07 9.89844 117.539 9.69531C118.008 9.49219 118.516 9.39062 119.062 9.39062C119.667 9.39062 120.195 9.49219 120.648 9.69531C121.102 9.89844 121.477 10.1849 121.773 10.5547C122.076 10.9193 122.299 11.3542 122.445 11.8594C122.596 12.3646 122.672 12.9219 122.672 13.5312V14.3359H116.141V12.9844H120.812V12.8359C120.802 12.4974 120.734 12.1797 120.609 11.8828C120.49 11.5859 120.305 11.3464 120.055 11.1641C119.805 10.9818 119.471 10.8906 119.055 10.8906C118.742 10.8906 118.464 10.9583 118.219 11.0938C117.979 11.224 117.779 11.4141 117.617 11.6641C117.456 11.9141 117.331 12.2161 117.242 12.5703C117.159 12.9193 117.117 13.3125 117.117 13.75V14.0625C117.117 14.4323 117.167 14.776 117.266 15.0938C117.37 15.4062 117.521 15.6797 117.719 15.9141C117.917 16.1484 118.156 16.3333 118.438 16.4688C118.719 16.599 119.039 16.6641 119.398 16.6641C119.852 16.6641 120.255 16.5729 120.609 16.3906C120.964 16.2083 121.271 15.9505 121.531 15.6172L122.523 16.5781C122.341 16.8438 122.104 17.099 121.812 17.3438C121.521 17.5833 121.164 17.7786 120.742 17.9297C120.326 18.0807 119.841 18.1562 119.289 18.1562ZM125.672 9.54688H127.555L127.461 12.5234C127.435 13.388 127.336 14.1302 127.164 14.75C126.992 15.3698 126.768 15.8932 126.492 16.3203C126.216 16.7422 125.904 17.0885 125.555 17.3594C125.211 17.6302 124.849 17.8438 124.469 18H123.914V16.5156L124.18 16.5C124.404 16.2604 124.596 16.0208 124.758 15.7812C124.924 15.5365 125.065 15.2682 125.18 14.9766C125.294 14.6797 125.383 14.3333 125.445 13.9375C125.513 13.5417 125.557 13.0703 125.578 12.5234L125.672 9.54688ZM126.172 9.54688H131.531V18H129.656V11.1406H126.172V9.54688ZM123.484 16.5H132.688V20.5156H130.805V18H125.391V20.5156H123.477L123.484 16.5ZM135.875 11.1719V21.25H133.992V9.54688H135.727L135.875 11.1719ZM141.383 13.6953V13.8594C141.383 14.474 141.31 15.0443 141.164 15.5703C141.023 16.0911 140.812 16.5469 140.531 16.9375C140.255 17.3229 139.914 17.6224 139.508 17.8359C139.102 18.0495 138.633 18.1562 138.102 18.1562C137.576 18.1562 137.115 18.0599 136.719 17.8672C136.328 17.6693 135.997 17.3906 135.727 17.0312C135.456 16.6719 135.237 16.25 135.07 15.7656C134.909 15.276 134.794 14.7396 134.727 14.1562V13.5234C134.794 12.9036 134.909 12.3411 135.07 11.8359C135.237 11.3307 135.456 10.8958 135.727 10.5312C135.997 10.1667 136.328 9.88542 136.719 9.6875C137.109 9.48958 137.565 9.39062 138.086 9.39062C138.617 9.39062 139.089 9.49479 139.5 9.70312C139.911 9.90625 140.258 10.1979 140.539 10.5781C140.82 10.9531 141.031 11.4062 141.172 11.9375C141.312 12.4635 141.383 13.0495 141.383 13.6953ZM139.5 13.8594V13.6953C139.5 13.3047 139.464 12.9427 139.391 12.6094C139.318 12.2708 139.203 11.974 139.047 11.7188C138.891 11.4635 138.69 11.2656 138.445 11.125C138.206 10.9792 137.917 10.9062 137.578 10.9062C137.245 10.9062 136.958 10.9635 136.719 11.0781C136.479 11.1875 136.279 11.3411 136.117 11.5391C135.956 11.737 135.831 11.9688 135.742 12.2344C135.654 12.4948 135.591 12.7786 135.555 13.0859V14.6016C135.617 14.9766 135.724 15.3203 135.875 15.6328C136.026 15.9453 136.24 16.1953 136.516 16.3828C136.797 16.5651 137.156 16.6562 137.594 16.6562C137.932 16.6562 138.221 16.5833 138.461 16.4375C138.701 16.2917 138.896 16.0911 139.047 15.8359C139.203 15.5755 139.318 15.276 139.391 14.9375C139.464 14.599 139.5 14.2396 139.5 13.8594ZM147.75 16.3047V12.2734C147.75 11.9714 147.695 11.7109 147.586 11.4922C147.477 11.2734 147.31 11.1042 147.086 10.9844C146.867 10.8646 146.591 10.8047 146.258 10.8047C145.951 10.8047 145.685 10.8568 145.461 10.9609C145.237 11.0651 145.062 11.2057 144.938 11.3828C144.812 11.5599 144.75 11.7604 144.75 11.9844H142.875C142.875 11.651 142.956 11.3281 143.117 11.0156C143.279 10.7031 143.513 10.4245 143.82 10.1797C144.128 9.9349 144.495 9.74219 144.922 9.60156C145.349 9.46094 145.828 9.39062 146.359 9.39062C146.995 9.39062 147.557 9.4974 148.047 9.71094C148.542 9.92448 148.93 10.2474 149.211 10.6797C149.497 11.1068 149.641 11.6432 149.641 12.2891V16.0469C149.641 16.4323 149.667 16.7786 149.719 17.0859C149.776 17.388 149.857 17.651 149.961 17.875V18H148.031C147.943 17.7969 147.872 17.5391 147.82 17.2266C147.773 16.9089 147.75 16.6016 147.75 16.3047ZM148.023 12.8594L148.039 14.0234H146.688C146.339 14.0234 146.031 14.0573 145.766 14.125C145.5 14.1875 145.279 14.2812 145.102 14.4062C144.924 14.5312 144.792 14.6823 144.703 14.8594C144.615 15.0365 144.57 15.237 144.57 15.4609C144.57 15.6849 144.622 15.8906 144.727 16.0781C144.831 16.2604 144.982 16.4036 145.18 16.5078C145.383 16.612 145.628 16.6641 145.914 16.6641C146.299 16.6641 146.635 16.5859 146.922 16.4297C147.214 16.2682 147.443 16.0729 147.609 15.8438C147.776 15.6094 147.865 15.388 147.875 15.1797L148.484 16.0156C148.422 16.2292 148.315 16.4583 148.164 16.7031C148.013 16.9479 147.815 17.1823 147.57 17.4062C147.331 17.625 147.042 17.8047 146.703 17.9453C146.37 18.0859 145.984 18.1562 145.547 18.1562C144.995 18.1562 144.503 18.0469 144.07 17.8281C143.638 17.6042 143.299 17.3047 143.055 16.9297C142.81 16.5495 142.688 16.1198 142.688 15.6406C142.688 15.1927 142.771 14.7969 142.938 14.4531C143.109 14.1042 143.359 13.8125 143.688 13.5781C144.021 13.3438 144.427 13.1667 144.906 13.0469C145.385 12.9219 145.932 12.8594 146.547 12.8594H148.023ZM85.9531 23.625H87.7031L90.9922 32.3984L94.2734 23.625H96.0234L91.6797 35H90.2891L85.9531 23.625ZM85.1562 23.625H86.8203L87.1094 31.2188V35H85.1562V23.625ZM95.1562 23.625H96.8281V35H94.8672V31.2188L95.1562 23.625ZM100.914 32.25L104.234 26.5469H106.117V35H104.234V29.2891L100.914 35H99.0312V26.5469H100.914V32.25ZM110 28.1719V38.25H108.117V26.5469H109.852L110 28.1719ZM115.508 30.6953V30.8594C115.508 31.474 115.435 32.0443 115.289 32.5703C115.148 33.0911 114.938 33.5469 114.656 33.9375C114.38 34.3229 114.039 34.6224 113.633 34.8359C113.227 35.0495 112.758 35.1562 112.227 35.1562C111.701 35.1562 111.24 35.0599 110.844 34.8672C110.453 34.6693 110.122 34.3906 109.852 34.0312C109.581 33.6719 109.362 33.25 109.195 32.7656C109.034 32.276 108.919 31.7396 108.852 31.1562V30.5234C108.919 29.9036 109.034 29.3411 109.195 28.8359C109.362 28.3307 109.581 27.8958 109.852 27.5312C110.122 27.1667 110.453 26.8854 110.844 26.6875C111.234 26.4896 111.69 26.3906 112.211 26.3906C112.742 26.3906 113.214 26.4948 113.625 26.7031C114.036 26.9062 114.383 27.1979 114.664 27.5781C114.945 27.9531 115.156 28.4062 115.297 28.9375C115.438 29.4635 115.508 30.0495 115.508 30.6953ZM113.625 30.8594V30.6953C113.625 30.3047 113.589 29.9427 113.516 29.6094C113.443 29.2708 113.328 28.974 113.172 28.7188C113.016 28.4635 112.815 28.2656 112.57 28.125C112.331 27.9792 112.042 27.9062 111.703 27.9062C111.37 27.9062 111.083 27.9635 110.844 28.0781C110.604 28.1875 110.404 28.3411 110.242 28.5391C110.081 28.737 109.956 28.9688 109.867 29.2344C109.779 29.4948 109.716 29.7786 109.68 30.0859V31.6016C109.742 31.9766 109.849 32.3203 110 32.6328C110.151 32.9453 110.365 33.1953 110.641 33.3828C110.922 33.5651 111.281 33.6562 111.719 33.6562C112.057 33.6562 112.346 33.5833 112.586 33.4375C112.826 33.2917 113.021 33.0911 113.172 32.8359C113.328 32.5755 113.443 32.276 113.516 31.9375C113.589 31.599 113.625 31.2396 113.625 30.8594ZM116.75 30.8672V30.6875C116.75 30.0781 116.839 29.513 117.016 28.9922C117.193 28.4661 117.448 28.0104 117.781 27.625C118.12 27.2344 118.531 26.9323 119.016 26.7188C119.505 26.5 120.057 26.3906 120.672 26.3906C121.292 26.3906 121.844 26.5 122.328 26.7188C122.818 26.9323 123.232 27.2344 123.57 27.625C123.909 28.0104 124.167 28.4661 124.344 28.9922C124.521 29.513 124.609 30.0781 124.609 30.6875V30.8672C124.609 31.4766 124.521 32.0417 124.344 32.5625C124.167 33.0833 123.909 33.5391 123.57 33.9297C123.232 34.3151 122.82 34.6172 122.336 34.8359C121.852 35.0495 121.302 35.1562 120.688 35.1562C120.068 35.1562 119.513 35.0495 119.023 34.8359C118.539 34.6172 118.128 34.3151 117.789 33.9297C117.451 33.5391 117.193 33.0833 117.016 32.5625C116.839 32.0417 116.75 31.4766 116.75 30.8672ZM118.633 30.6875V30.8672C118.633 31.2474 118.672 31.6068 118.75 31.9453C118.828 32.2839 118.951 32.5807 119.117 32.8359C119.284 33.0911 119.497 33.2917 119.758 33.4375C120.018 33.5833 120.328 33.6562 120.688 33.6562C121.036 33.6562 121.339 33.5833 121.594 33.4375C121.854 33.2917 122.068 33.0911 122.234 32.8359C122.401 32.5807 122.523 32.2839 122.602 31.9453C122.685 31.6068 122.727 31.2474 122.727 30.8672V30.6875C122.727 30.3125 122.685 29.9583 122.602 29.625C122.523 29.2865 122.398 28.987 122.227 28.7266C122.06 28.4661 121.846 28.263 121.586 28.1172C121.331 27.9661 121.026 27.8906 120.672 27.8906C120.318 27.8906 120.01 27.9661 119.75 28.1172C119.495 28.263 119.284 28.4661 119.117 28.7266C118.951 28.987 118.828 29.2865 118.75 29.625C118.672 29.9583 118.633 30.3125 118.633 30.6875ZM130.297 31.3828H127.594L127.578 30.0547H129.797C130.161 30.0547 130.461 30.0182 130.695 29.9453C130.935 29.8724 131.112 29.763 131.227 29.6172C131.341 29.4661 131.398 29.2839 131.398 29.0703C131.398 28.8932 131.365 28.7396 131.297 28.6094C131.229 28.474 131.125 28.3646 130.984 28.2812C130.849 28.1927 130.677 28.1302 130.469 28.0938C130.266 28.0521 130.029 28.0312 129.758 28.0312H128.219V35H126.336V26.5469H129.758C130.299 26.5469 130.786 26.5938 131.219 26.6875C131.656 26.7812 132.029 26.9245 132.336 27.1172C132.643 27.3099 132.878 27.5547 133.039 27.8516C133.206 28.1432 133.289 28.487 133.289 28.8828C133.289 29.1432 133.232 29.388 133.117 29.6172C133.008 29.8464 132.844 30.0495 132.625 30.2266C132.406 30.4036 132.138 30.5495 131.82 30.6641C131.503 30.7734 131.138 30.8411 130.727 30.8672L130.297 31.3828ZM130.297 35H127.047L127.797 33.5156H130.297C130.63 33.5156 130.906 33.474 131.125 33.3906C131.344 33.3073 131.505 33.1875 131.609 33.0312C131.719 32.8698 131.773 32.6797 131.773 32.4609C131.773 32.237 131.721 32.0443 131.617 31.8828C131.513 31.7214 131.352 31.599 131.133 31.5156C130.919 31.4271 130.641 31.3828 130.297 31.3828H128.148L128.164 30.0547H130.719L131.258 30.5703C131.794 30.6068 132.24 30.7214 132.594 30.9141C132.948 31.1068 133.214 31.349 133.391 31.6406C133.568 31.9323 133.656 32.25 133.656 32.5938C133.656 32.9896 133.581 33.3385 133.43 33.6406C133.284 33.9427 133.065 34.1953 132.773 34.3984C132.487 34.5964 132.135 34.7474 131.719 34.8516C131.302 34.9505 130.828 35 130.297 35ZM134.922 30.8672V30.6875C134.922 30.0781 135.01 29.513 135.188 28.9922C135.365 28.4661 135.62 28.0104 135.953 27.625C136.292 27.2344 136.703 26.9323 137.188 26.7188C137.677 26.5 138.229 26.3906 138.844 26.3906C139.464 26.3906 140.016 26.5 140.5 26.7188C140.99 26.9323 141.404 27.2344 141.742 27.625C142.081 28.0104 142.339 28.4661 142.516 28.9922C142.693 29.513 142.781 30.0781 142.781 30.6875V30.8672C142.781 31.4766 142.693 32.0417 142.516 32.5625C142.339 33.0833 142.081 33.5391 141.742 33.9297C141.404 34.3151 140.992 34.6172 140.508 34.8359C140.023 35.0495 139.474 35.1562 138.859 35.1562C138.24 35.1562 137.685 35.0495 137.195 34.8359C136.711 34.6172 136.299 34.3151 135.961 33.9297C135.622 33.5391 135.365 33.0833 135.188 32.5625C135.01 32.0417 134.922 31.4766 134.922 30.8672ZM136.805 30.6875V30.8672C136.805 31.2474 136.844 31.6068 136.922 31.9453C137 32.2839 137.122 32.5807 137.289 32.8359C137.456 33.0911 137.669 33.2917 137.93 33.4375C138.19 33.5833 138.5 33.6562 138.859 33.6562C139.208 33.6562 139.51 33.5833 139.766 33.4375C140.026 33.2917 140.24 33.0911 140.406 32.8359C140.573 32.5807 140.695 32.2839 140.773 31.9453C140.857 31.6068 140.898 31.2474 140.898 30.8672V30.6875C140.898 30.3125 140.857 29.9583 140.773 29.625C140.695 29.2865 140.57 28.987 140.398 28.7266C140.232 28.4661 140.018 28.263 139.758 28.1172C139.503 27.9661 139.198 27.8906 138.844 27.8906C138.49 27.8906 138.182 27.9661 137.922 28.1172C137.667 28.263 137.456 28.4661 137.289 28.7266C137.122 28.987 137 29.2865 136.922 29.625C136.844 29.9583 136.805 30.3125 136.805 30.6875ZM146.305 32.25L149.625 26.5469H151.508V35H149.625V29.2891L146.305 35H144.422V26.5469H146.305V32.25ZM149.125 23.2969H150.523C150.523 23.7292 150.419 24.112 150.211 24.4453C150.008 24.7734 149.716 25.0312 149.336 25.2188C148.961 25.4062 148.513 25.5 147.992 25.5C147.206 25.5 146.583 25.2969 146.125 24.8906C145.672 24.4792 145.445 23.9479 145.445 23.2969H146.844C146.844 23.5885 146.93 23.8464 147.102 24.0703C147.279 24.2891 147.576 24.3984 147.992 24.3984C148.404 24.3984 148.695 24.2891 148.867 24.0703C149.039 23.8464 149.125 23.5885 149.125 23.2969ZM160.516 27.8906C160.224 27.8906 159.956 27.9531 159.711 28.0781C159.471 28.1979 159.279 28.3672 159.133 28.5859C158.992 28.7995 158.922 29.0521 158.922 29.3438H157.141C157.141 28.7917 157.294 28.2943 157.602 27.8516C157.914 27.4036 158.326 27.0495 158.836 26.7891C159.346 26.5234 159.906 26.3906 160.516 26.3906C161.135 26.3906 161.682 26.5026 162.156 26.7266C162.63 26.9453 163.029 27.25 163.352 27.6406C163.674 28.0312 163.917 28.4844 164.078 29C164.245 29.5104 164.328 30.0573 164.328 30.6406V30.9141C164.328 31.4974 164.245 32.0443 164.078 32.5547C163.911 33.0651 163.667 33.5182 163.344 33.9141C163.021 34.3047 162.622 34.612 162.148 34.8359C161.68 35.0547 161.138 35.1641 160.523 35.1641C159.867 35.1641 159.284 35.0286 158.773 34.7578C158.263 34.487 157.862 34.1146 157.57 33.6406C157.284 33.1615 157.141 32.6068 157.141 31.9766H158.922C158.922 32.2943 158.99 32.5807 159.125 32.8359C159.26 33.0911 159.448 33.2943 159.688 33.4453C159.927 33.5911 160.206 33.6641 160.523 33.6641C160.872 33.6641 161.169 33.5859 161.414 33.4297C161.659 33.2734 161.857 33.0651 162.008 32.8047C162.159 32.5443 162.268 32.25 162.336 31.9219C162.404 31.5885 162.438 31.2526 162.438 30.9141V30.6406C162.438 30.2917 162.404 29.9531 162.336 29.625C162.268 29.2969 162.159 29.0026 162.008 28.7422C161.862 28.4818 161.664 28.276 161.414 28.125C161.169 27.9688 160.87 27.8906 160.516 27.8906ZM163.156 30.0781V31.3516H159.727V30.0781H163.156ZM167.969 26.5469V35H166.086V26.5469H167.969ZM173.484 26.5469L169.68 31.6328H167.531L167.281 29.9297H168.852L171.133 26.5469H173.484ZM171.281 35L168.734 31.3125L170.219 30.2422L173.758 35H171.281ZM174.141 30.8672V30.6875C174.141 30.0781 174.229 29.513 174.406 28.9922C174.583 28.4661 174.839 28.0104 175.172 27.625C175.51 27.2344 175.922 26.9323 176.406 26.7188C176.896 26.5 177.448 26.3906 178.062 26.3906C178.682 26.3906 179.234 26.5 179.719 26.7188C180.208 26.9323 180.622 27.2344 180.961 27.625C181.299 28.0104 181.557 28.4661 181.734 28.9922C181.911 29.513 182 30.0781 182 30.6875V30.8672C182 31.4766 181.911 32.0417 181.734 32.5625C181.557 33.0833 181.299 33.5391 180.961 33.9297C180.622 34.3151 180.211 34.6172 179.727 34.8359C179.242 35.0495 178.693 35.1562 178.078 35.1562C177.458 35.1562 176.904 35.0495 176.414 34.8359C175.93 34.6172 175.518 34.3151 175.18 33.9297C174.841 33.5391 174.583 33.0833 174.406 32.5625C174.229 32.0417 174.141 31.4766 174.141 30.8672ZM176.023 30.6875V30.8672C176.023 31.2474 176.062 31.6068 176.141 31.9453C176.219 32.2839 176.341 32.5807 176.508 32.8359C176.674 33.0911 176.888 33.2917 177.148 33.4375C177.409 33.5833 177.719 33.6562 178.078 33.6562C178.427 33.6562 178.729 33.5833 178.984 33.4375C179.245 33.2917 179.458 33.0911 179.625 32.8359C179.792 32.5807 179.914 32.2839 179.992 31.9453C180.076 31.6068 180.117 31.2474 180.117 30.8672V30.6875C180.117 30.3125 180.076 29.9583 179.992 29.625C179.914 29.2865 179.789 28.987 179.617 28.7266C179.451 28.4661 179.237 28.263 178.977 28.1172C178.721 27.9661 178.417 27.8906 178.062 27.8906C177.708 27.8906 177.401 27.9661 177.141 28.1172C176.885 28.263 176.674 28.4661 176.508 28.7266C176.341 28.987 176.219 29.2865 176.141 29.625C176.062 29.9583 176.023 30.3125 176.023 30.6875ZM189.352 30.0781V31.5625H184.977V30.0781H189.352ZM185.523 26.5469V35H183.641V26.5469H185.523ZM190.711 26.5469V35H188.828V26.5469H190.711ZM192.359 30.8672V30.6875C192.359 30.0781 192.448 29.513 192.625 28.9922C192.802 28.4661 193.057 28.0104 193.391 27.625C193.729 27.2344 194.141 26.9323 194.625 26.7188C195.115 26.5 195.667 26.3906 196.281 26.3906C196.901 26.3906 197.453 26.5 197.938 26.7188C198.427 26.9323 198.841 27.2344 199.18 27.625C199.518 28.0104 199.776 28.4661 199.953 28.9922C200.13 29.513 200.219 30.0781 200.219 30.6875V30.8672C200.219 31.4766 200.13 32.0417 199.953 32.5625C199.776 33.0833 199.518 33.5391 199.18 33.9297C198.841 34.3151 198.43 34.6172 197.945 34.8359C197.461 35.0495 196.911 35.1562 196.297 35.1562C195.677 35.1562 195.122 35.0495 194.633 34.8359C194.148 34.6172 193.737 34.3151 193.398 33.9297C193.06 33.5391 192.802 33.0833 192.625 32.5625C192.448 32.0417 192.359 31.4766 192.359 30.8672ZM194.242 30.6875V30.8672C194.242 31.2474 194.281 31.6068 194.359 31.9453C194.438 32.2839 194.56 32.5807 194.727 32.8359C194.893 33.0911 195.107 33.2917 195.367 33.4375C195.628 33.5833 195.938 33.6562 196.297 33.6562C196.646 33.6562 196.948 33.5833 197.203 33.4375C197.464 33.2917 197.677 33.0911 197.844 32.8359C198.01 32.5807 198.133 32.2839 198.211 31.9453C198.294 31.6068 198.336 31.2474 198.336 30.8672V30.6875C198.336 30.3125 198.294 29.9583 198.211 29.625C198.133 29.2865 198.008 28.987 197.836 28.7266C197.669 28.4661 197.456 28.263 197.195 28.1172C196.94 27.9661 196.635 27.8906 196.281 27.8906C195.927 27.8906 195.62 27.9661 195.359 28.1172C195.104 28.263 194.893 28.4661 194.727 28.7266C194.56 28.987 194.438 29.2865 194.359 29.625C194.281 29.9583 194.242 30.3125 194.242 30.6875ZM206.82 32.7188L209.336 26.5469H210.969L207.461 35H206.18L202.68 26.5469H204.312L206.82 32.7188ZM203.828 26.5469V35H201.945V26.5469H203.828ZM209.812 35V26.5469H211.703V35H209.812ZM215.758 32.25L219.078 26.5469H220.961V35H219.078V29.2891L215.758 35H213.875V26.5469H215.758V32.25ZM224.984 26.5469V35H223.102V26.5469H224.984ZM230.5 26.5469L226.695 31.6328H224.547L224.297 29.9297H225.867L228.148 26.5469H230.5ZM228.297 35L225.75 31.3125L227.234 30.2422L230.773 35H228.297ZM233.742 32.25L237.062 26.5469H238.945V35H237.062V29.2891L233.742 35H231.859V26.5469H233.742V32.25ZM85.9531 40.625H87.7031L90.9922 49.3984L94.2734 40.625H96.0234L91.6797 52H90.2891L85.9531 40.625ZM85.1562 40.625H86.8203L87.1094 48.2188V52H85.1562V40.625ZM95.1562 40.625H96.8281V52H94.8672V48.2188L95.1562 40.625ZM103.734 50.3047V46.2734C103.734 45.9714 103.68 45.7109 103.57 45.4922C103.461 45.2734 103.294 45.1042 103.07 44.9844C102.852 44.8646 102.576 44.8047 102.242 44.8047C101.935 44.8047 101.669 44.8568 101.445 44.9609C101.221 45.0651 101.047 45.2057 100.922 45.3828C100.797 45.5599 100.734 45.7604 100.734 45.9844H98.8594C98.8594 45.651 98.9401 45.3281 99.1016 45.0156C99.263 44.7031 99.4974 44.4245 99.8047 44.1797C100.112 43.9349 100.479 43.7422 100.906 43.6016C101.333 43.4609 101.812 43.3906 102.344 43.3906C102.979 43.3906 103.542 43.4974 104.031 43.7109C104.526 43.9245 104.914 44.2474 105.195 44.6797C105.482 45.1068 105.625 45.6432 105.625 46.2891V50.0469C105.625 50.4323 105.651 50.7786 105.703 51.0859C105.76 51.388 105.841 51.651 105.945 51.875V52H104.016C103.927 51.7969 103.857 51.5391 103.805 51.2266C103.758 50.9089 103.734 50.6016 103.734 50.3047ZM104.008 46.8594L104.023 48.0234H102.672C102.323 48.0234 102.016 48.0573 101.75 48.125C101.484 48.1875 101.263 48.2812 101.086 48.4062C100.909 48.5312 100.776 48.6823 100.688 48.8594C100.599 49.0365 100.555 49.237 100.555 49.4609C100.555 49.6849 100.607 49.8906 100.711 50.0781C100.815 50.2604 100.966 50.4036 101.164 50.5078C101.367 50.612 101.612 50.6641 101.898 50.6641C102.284 50.6641 102.62 50.5859 102.906 50.4297C103.198 50.2682 103.427 50.0729 103.594 49.8438C103.76 49.6094 103.849 49.388 103.859 49.1797L104.469 50.0156C104.406 50.2292 104.299 50.4583 104.148 50.7031C103.997 50.9479 103.799 51.1823 103.555 51.4062C103.315 51.625 103.026 51.8047 102.688 51.9453C102.354 52.0859 101.969 52.1562 101.531 52.1562C100.979 52.1562 100.487 52.0469 100.055 51.8281C99.6224 51.6042 99.2839 51.3047 99.0391 50.9297C98.7943 50.5495 98.6719 50.1198 98.6719 49.6406C98.6719 49.1927 98.7552 48.7969 98.9219 48.4531C99.0938 48.1042 99.3438 47.8125 99.6719 47.5781C100.005 47.3438 100.411 47.1667 100.891 47.0469C101.37 46.9219 101.917 46.8594 102.531 46.8594H104.008ZM109.484 45.1719V55.25H107.602V43.5469H109.336L109.484 45.1719ZM114.992 47.6953V47.8594C114.992 48.474 114.919 49.0443 114.773 49.5703C114.633 50.0911 114.422 50.5469 114.141 50.9375C113.865 51.3229 113.523 51.6224 113.117 51.8359C112.711 52.0495 112.242 52.1562 111.711 52.1562C111.185 52.1562 110.724 52.0599 110.328 51.8672C109.938 51.6693 109.607 51.3906 109.336 51.0312C109.065 50.6719 108.846 50.25 108.68 49.7656C108.518 49.276 108.404 48.7396 108.336 48.1562V47.5234C108.404 46.9036 108.518 46.3411 108.68 45.8359C108.846 45.3307 109.065 44.8958 109.336 44.5312C109.607 44.1667 109.938 43.8854 110.328 43.6875C110.719 43.4896 111.174 43.3906 111.695 43.3906C112.227 43.3906 112.698 43.4948 113.109 43.7031C113.521 43.9062 113.867 44.1979 114.148 44.5781C114.43 44.9531 114.641 45.4062 114.781 45.9375C114.922 46.4635 114.992 47.0495 114.992 47.6953ZM113.109 47.8594V47.6953C113.109 47.3047 113.073 46.9427 113 46.6094C112.927 46.2708 112.812 45.974 112.656 45.7188C112.5 45.4635 112.299 45.2656 112.055 45.125C111.815 44.9792 111.526 44.9062 111.188 44.9062C110.854 44.9062 110.568 44.9635 110.328 45.0781C110.089 45.1875 109.888 45.3411 109.727 45.5391C109.565 45.737 109.44 45.9688 109.352 46.2344C109.263 46.4948 109.201 46.7786 109.164 47.0859V48.6016C109.227 48.9766 109.333 49.3203 109.484 49.6328C109.635 49.9453 109.849 50.1953 110.125 50.3828C110.406 50.5651 110.766 50.6562 111.203 50.6562C111.542 50.6562 111.831 50.5833 112.07 50.4375C112.31 50.2917 112.505 50.0911 112.656 49.8359C112.812 49.5755 112.927 49.276 113 48.9375C113.073 48.599 113.109 48.2396 113.109 47.8594ZM118.625 43.5469V52H116.742V43.5469H118.625ZM124.141 43.5469L120.336 48.6328H118.188L117.938 46.9297H119.508L121.789 43.5469H124.141ZM121.938 52L119.391 48.3125L120.875 47.2422L124.414 52H121.938ZM129.039 52.1562C128.414 52.1562 127.849 52.0547 127.344 51.8516C126.844 51.6432 126.417 51.3542 126.062 50.9844C125.714 50.6146 125.445 50.1797 125.258 49.6797C125.07 49.1797 124.977 48.6406 124.977 48.0625V47.75C124.977 47.0885 125.073 46.4896 125.266 45.9531C125.458 45.4167 125.727 44.9583 126.07 44.5781C126.414 44.1927 126.82 43.8984 127.289 43.6953C127.758 43.4922 128.266 43.3906 128.812 43.3906C129.417 43.3906 129.945 43.4922 130.398 43.6953C130.852 43.8984 131.227 44.1849 131.523 44.5547C131.826 44.9193 132.049 45.3542 132.195 45.8594C132.346 46.3646 132.422 46.9219 132.422 47.5312V48.3359H125.891V46.9844H130.562V46.8359C130.552 46.4974 130.484 46.1797 130.359 45.8828C130.24 45.5859 130.055 45.3464 129.805 45.1641C129.555 44.9818 129.221 44.8906 128.805 44.8906C128.492 44.8906 128.214 44.9583 127.969 45.0938C127.729 45.224 127.529 45.4141 127.367 45.6641C127.206 45.9141 127.081 46.2161 126.992 46.5703C126.909 46.9193 126.867 47.3125 126.867 47.75V48.0625C126.867 48.4323 126.917 48.776 127.016 49.0938C127.12 49.4062 127.271 49.6797 127.469 49.9141C127.667 50.1484 127.906 50.3333 128.188 50.4688C128.469 50.599 128.789 50.6641 129.148 50.6641C129.602 50.6641 130.005 50.5729 130.359 50.3906C130.714 50.2083 131.021 49.9505 131.281 49.6172L132.273 50.5781C132.091 50.8438 131.854 51.099 131.562 51.3438C131.271 51.5833 130.914 51.7786 130.492 51.9297C130.076 52.0807 129.591 52.1562 129.039 52.1562ZM137.719 43.5469V52H135.828V43.5469H137.719ZM140.492 43.5469V45.0312H133.102V43.5469H140.492ZM143.695 49.25L147.016 43.5469H148.898V52H147.016V46.2891L143.695 52H141.812V43.5469H143.695V49.25ZM156.664 47.0781V48.5625H152.289V47.0781H156.664ZM152.836 43.5469V52H150.953V43.5469H152.836ZM158.023 43.5469V52H156.141V43.5469H158.023ZM165.656 43.5469V45.0469H161.969V52H160.086V43.5469H165.656ZM171.516 50.3047V46.2734C171.516 45.9714 171.461 45.7109 171.352 45.4922C171.242 45.2734 171.076 45.1042 170.852 44.9844C170.633 44.8646 170.357 44.8047 170.023 44.8047C169.716 44.8047 169.451 44.8568 169.227 44.9609C169.003 45.0651 168.828 45.2057 168.703 45.3828C168.578 45.5599 168.516 45.7604 168.516 45.9844H166.641C166.641 45.651 166.721 45.3281 166.883 45.0156C167.044 44.7031 167.279 44.4245 167.586 44.1797C167.893 43.9349 168.26 43.7422 168.688 43.6016C169.115 43.4609 169.594 43.3906 170.125 43.3906C170.76 43.3906 171.323 43.4974 171.812 43.7109C172.307 43.9245 172.695 44.2474 172.977 44.6797C173.263 45.1068 173.406 45.6432 173.406 46.2891V50.0469C173.406 50.4323 173.432 50.7786 173.484 51.0859C173.542 51.388 173.622 51.651 173.727 51.875V52H171.797C171.708 51.7969 171.638 51.5391 171.586 51.2266C171.539 50.9089 171.516 50.6016 171.516 50.3047ZM171.789 46.8594L171.805 48.0234H170.453C170.104 48.0234 169.797 48.0573 169.531 48.125C169.266 48.1875 169.044 48.2812 168.867 48.4062C168.69 48.5312 168.557 48.6823 168.469 48.8594C168.38 49.0365 168.336 49.237 168.336 49.4609C168.336 49.6849 168.388 49.8906 168.492 50.0781C168.596 50.2604 168.747 50.4036 168.945 50.5078C169.148 50.612 169.393 50.6641 169.68 50.6641C170.065 50.6641 170.401 50.5859 170.688 50.4297C170.979 50.2682 171.208 50.0729 171.375 49.8438C171.542 49.6094 171.63 49.388 171.641 49.1797L172.25 50.0156C172.188 50.2292 172.081 50.4583 171.93 50.7031C171.779 50.9479 171.581 51.1823 171.336 51.4062C171.096 51.625 170.807 51.8047 170.469 51.9453C170.135 52.0859 169.75 52.1562 169.312 52.1562C168.76 52.1562 168.268 52.0469 167.836 51.8281C167.404 51.6042 167.065 51.3047 166.82 50.9297C166.576 50.5495 166.453 50.1198 166.453 49.6406C166.453 49.1927 166.536 48.7969 166.703 48.4531C166.875 48.1042 167.125 47.8125 167.453 47.5781C167.786 47.3438 168.193 47.1667 168.672 47.0469C169.151 46.9219 169.698 46.8594 170.312 46.8594H171.789ZM87.0938 65.8047L92.1406 57.625H94.1016V69H92.1406V60.8125L87.0938 69H85.1406V57.625H87.0938V65.8047ZM102.039 64.0781V65.5625H97.6641V64.0781H102.039ZM98.2109 60.5469V69H96.3281V60.5469H98.2109ZM103.398 60.5469V69H101.516V60.5469H103.398ZM109.516 65.3828H106.812L106.797 64.0547H109.016C109.38 64.0547 109.68 64.0182 109.914 63.9453C110.154 63.8724 110.331 63.763 110.445 63.6172C110.56 63.4661 110.617 63.2839 110.617 63.0703C110.617 62.8932 110.583 62.7396 110.516 62.6094C110.448 62.474 110.344 62.3646 110.203 62.2812C110.068 62.1927 109.896 62.1302 109.688 62.0938C109.484 62.0521 109.247 62.0312 108.977 62.0312H107.438V69H105.555V60.5469H108.977C109.518 60.5469 110.005 60.5938 110.438 60.6875C110.875 60.7812 111.247 60.9245 111.555 61.1172C111.862 61.3099 112.096 61.5547 112.258 61.8516C112.424 62.1432 112.508 62.487 112.508 62.8828C112.508 63.1432 112.451 63.388 112.336 63.6172C112.227 63.8464 112.062 64.0495 111.844 64.2266C111.625 64.4036 111.357 64.5495 111.039 64.6641C110.721 64.7734 110.357 64.8411 109.945 64.8672L109.516 65.3828ZM109.516 69H106.266L107.016 67.5156H109.516C109.849 67.5156 110.125 67.474 110.344 67.3906C110.562 67.3073 110.724 67.1875 110.828 67.0312C110.938 66.8698 110.992 66.6797 110.992 66.4609C110.992 66.237 110.94 66.0443 110.836 65.8828C110.732 65.7214 110.57 65.599 110.352 65.5156C110.138 65.4271 109.859 65.3828 109.516 65.3828H107.367L107.383 64.0547H109.938L110.477 64.5703C111.013 64.6068 111.458 64.7214 111.812 64.9141C112.167 65.1068 112.432 65.349 112.609 65.6406C112.786 65.9323 112.875 66.25 112.875 66.5938C112.875 66.9896 112.799 67.3385 112.648 67.6406C112.503 67.9427 112.284 68.1953 111.992 68.3984C111.706 68.5964 111.354 68.7474 110.938 68.8516C110.521 68.9505 110.047 69 109.516 69ZM118.227 69.1562C117.602 69.1562 117.036 69.0547 116.531 68.8516C116.031 68.6432 115.604 68.3542 115.25 67.9844C114.901 67.6146 114.633 67.1797 114.445 66.6797C114.258 66.1797 114.164 65.6406 114.164 65.0625V64.75C114.164 64.0885 114.26 63.4896 114.453 62.9531C114.646 62.4167 114.914 61.9583 115.258 61.5781C115.602 61.1927 116.008 60.8984 116.477 60.6953C116.945 60.4922 117.453 60.3906 118 60.3906C118.604 60.3906 119.133 60.4922 119.586 60.6953C120.039 60.8984 120.414 61.1849 120.711 61.5547C121.013 61.9193 121.237 62.3542 121.383 62.8594C121.534 63.3646 121.609 63.9219 121.609 64.5312V65.3359H115.078V63.9844H119.75V63.8359C119.74 63.4974 119.672 63.1797 119.547 62.8828C119.427 62.5859 119.242 62.3464 118.992 62.1641C118.742 61.9818 118.409 61.8906 117.992 61.8906C117.68 61.8906 117.401 61.9583 117.156 62.0938C116.917 62.224 116.716 62.4141 116.555 62.6641C116.393 62.9141 116.268 63.2161 116.18 63.5703C116.096 63.9193 116.055 64.3125 116.055 64.75V65.0625C116.055 65.4323 116.104 65.776 116.203 66.0938C116.307 66.4062 116.458 66.6797 116.656 66.9141C116.854 67.1484 117.094 67.3333 117.375 67.4688C117.656 67.599 117.977 67.6641 118.336 67.6641C118.789 67.6641 119.193 67.5729 119.547 67.3906C119.901 67.2083 120.208 66.9505 120.469 66.6172L121.461 67.5781C121.279 67.8438 121.042 68.099 120.75 68.3438C120.458 68.5833 120.102 68.7786 119.68 68.9297C119.263 69.0807 118.779 69.1562 118.227 69.1562ZM126.531 67.6562C126.839 67.6562 127.115 67.5964 127.359 67.4766C127.609 67.3516 127.81 67.1797 127.961 66.9609C128.117 66.7422 128.203 66.4896 128.219 66.2031H129.992C129.982 66.75 129.82 67.2474 129.508 67.6953C129.195 68.1432 128.781 68.5 128.266 68.7656C127.75 69.026 127.18 69.1562 126.555 69.1562C125.909 69.1562 125.346 69.0469 124.867 68.8281C124.388 68.6042 123.99 68.2969 123.672 67.9062C123.354 67.5156 123.115 67.0651 122.953 66.5547C122.797 66.0443 122.719 65.4974 122.719 64.9141V64.6406C122.719 64.0573 122.797 63.5104 122.953 63C123.115 62.4844 123.354 62.0312 123.672 61.6406C123.99 61.25 124.388 60.9453 124.867 60.7266C125.346 60.5026 125.906 60.3906 126.547 60.3906C127.224 60.3906 127.818 60.526 128.328 60.7969C128.839 61.0625 129.24 61.4349 129.531 61.9141C129.828 62.388 129.982 62.9401 129.992 63.5703H128.219C128.203 63.2578 128.125 62.9766 127.984 62.7266C127.849 62.4714 127.656 62.2682 127.406 62.1172C127.161 61.9661 126.867 61.8906 126.523 61.8906C126.143 61.8906 125.828 61.9688 125.578 62.125C125.328 62.276 125.133 62.4844 124.992 62.75C124.852 63.0104 124.75 63.3047 124.688 63.6328C124.63 63.9557 124.602 64.2917 124.602 64.6406V64.9141C124.602 65.263 124.63 65.6016 124.688 65.9297C124.745 66.2578 124.844 66.5521 124.984 66.8125C125.13 67.0677 125.328 67.2734 125.578 67.4297C125.828 67.5807 126.146 67.6562 126.531 67.6562ZM135.359 60.5469V69H133.469V60.5469H135.359ZM138.133 60.5469V62.0312H130.742V60.5469H138.133ZM141.336 66.25L144.656 60.5469H146.539V69H144.656V63.2891L141.336 69H139.453V60.5469H141.336V66.25ZM148.594 69V60.5469H150.477V67.5H153.789V60.5469H155.68V69H148.594ZM156.828 67.5078L156.68 71.5078H154.953V69H153.938V67.5078H156.828ZM160.102 66.25L163.422 60.5469H165.305V69H163.422V63.2891L160.102 69H158.219V60.5469H160.102V66.25ZM169.242 66.25L172.562 60.5469H174.445V69H172.562V63.2891L169.242 69H167.359V60.5469H169.242V66.25ZM172.062 57.2969H173.461C173.461 57.7292 173.357 58.112 173.148 58.4453C172.945 58.7734 172.654 59.0312 172.273 59.2188C171.898 59.4062 171.451 59.5 170.93 59.5C170.143 59.5 169.521 59.2969 169.062 58.8906C168.609 58.4792 168.383 57.9479 168.383 57.2969H169.781C169.781 57.5885 169.867 57.8464 170.039 58.0703C170.216 58.2891 170.513 58.3984 170.93 58.3984C171.341 58.3984 171.633 58.2891 171.805 58.0703C171.977 57.8464 172.062 57.5885 172.062 57.2969Z" fill="white"/>
<path d="M12.1797 6.5625H16.5547L24.7773 28.4961L32.9805 6.5625H37.3555L26.4961 35H23.0195L12.1797 6.5625ZM10.1875 6.5625H14.3477L15.0703 25.5469V35H10.1875V6.5625ZM35.1875 6.5625H39.3672V35H34.4648V25.5469L35.1875 6.5625ZM63.8594 18.8477V22.7539H51.9648V18.8477H63.8594ZM44.25 25.7422H49.1328C49.276 26.9922 49.569 28.0469 50.0117 28.9062C50.4674 29.7656 51.125 30.4167 51.9844 30.8594C52.8568 31.3021 53.9961 31.5234 55.4023 31.5234C56.5352 31.5234 57.5117 31.2956 58.332 30.8398C59.1654 30.3841 59.849 29.7396 60.3828 28.9062C60.9167 28.0599 61.3138 27.0573 61.5742 25.8984C61.8346 24.7266 61.9648 23.418 61.9648 21.9727V19.5898C61.9648 18.3789 61.8737 17.2786 61.6914 16.2891C61.5091 15.2865 61.2292 14.401 60.8516 13.6328C60.487 12.8646 60.0312 12.2201 59.4844 11.6992C58.9505 11.1654 58.3255 10.7617 57.6094 10.4883C56.8932 10.2148 56.0924 10.0781 55.207 10.0781C53.8398 10.0781 52.7331 10.3125 51.8867 10.7812C51.0404 11.237 50.4023 11.9076 49.9727 12.793C49.543 13.6654 49.2565 14.7201 49.1133 15.957H44.2305C44.4258 14.043 44.9596 12.3503 45.832 10.8789C46.7044 9.40755 47.9154 8.25521 49.4648 7.42188C51.0273 6.58854 52.9414 6.17188 55.207 6.17188C56.9909 6.17188 58.5924 6.49089 60.0117 7.12891C61.444 7.75391 62.668 8.65885 63.6836 9.84375C64.6992 11.0156 65.474 12.4284 66.0078 14.082C66.5547 15.7357 66.8281 17.5846 66.8281 19.6289V21.9727C66.8281 24.0169 66.5612 25.8659 66.0273 27.5195C65.5065 29.1732 64.7448 30.5859 63.7422 31.7578C62.7396 32.9297 61.5352 33.8281 60.1289 34.4531C58.7227 35.0781 57.1471 35.3906 55.4023 35.3906C53.0977 35.3906 51.1445 34.9805 49.543 34.1602C47.9544 33.3268 46.7174 32.181 45.832 30.7227C44.9466 29.2643 44.4193 27.6042 44.25 25.7422Z" fill="#2D4A8A"/>
<path d="M11.2617 40.5625H15.6367L23.8594 62.4961L32.0625 40.5625H36.4375L25.5781 69H22.1016L11.2617 40.5625ZM9.26953 40.5625H13.4297L14.1523 59.5469V69H9.26953V40.5625ZM34.2695 40.5625H38.4492V69H33.5469V59.5469L34.2695 40.5625ZM49.1133 61.0117L61.7305 40.5625H66.6328V69H61.7305V48.5312L49.1133 69H44.2305V40.5625H49.1133V61.0117Z" fill="#2D4A8A"/>
</svg>
