<svg width="240" height="163" viewBox="0 0 240 163" fill="none" xmlns="http://www.w3.org/2000/svg">
<path d="M36.2057 139.054C48.0858 146.81 61.1217 152.63 74.8264 156.295C104.522 164.31 135.81 164.31 165.506 156.295C179.201 152.626 192.228 146.806 204.101 139.054C215.241 131.629 224.22 122.715 230.373 112.778C236.4 103.461 239.607 92.5988 239.607 81.5003C239.607 70.4018 236.4 59.5401 230.373 50.2226C227.831 46.14 224.908 42.3081 221.641 38.7793C221.645 38.8076 221.645 38.8361 221.641 38.8644C222.705 32.053 221.845 25.9141 214.535 22.0058C202.263 15.4583 186.518 3.54655 171.863 3.31665C165.974 -0.165736 160.8 1.43499 155.761 4.38949L155.829 4.34691C144.095 1.89853 132.139 0.674425 120.153 0.694241C104.841 0.652391 89.5923 2.67136 74.8177 6.69689C71.8506 7.52562 68.9399 8.42815 66.0861 9.40448C59.9896 8.60468 53.7959 8.99506 47.8481 10.5539C40.9119 12.4527 39.4906 15.5093 33.8653 20.2348C30.9716 22.7892 24.5037 26.4504 22.6144 30.2308C21.5993 32.4519 20.7958 34.764 20.2144 37.136C16.322 41.1133 12.8721 45.501 9.92522 50.2226C3.89779 59.5401 0.690979 70.4018 0.690979 81.5003C0.690979 92.5988 3.89779 103.461 9.92522 112.778C16.0783 122.715 25.0655 131.629 36.2057 139.054ZM220.032 46.2463C220.032 46.1612 220.075 46.0847 220.092 45.9996V46.0761C221.91 48.2994 223.587 50.6341 225.113 53.0664C230.655 61.518 233.607 71.4054 233.607 81.5132C233.607 91.6208 230.655 101.508 225.113 109.96C223.786 112.076 222.343 114.117 220.79 116.073C218.101 114.268 209.199 109.832 208.024 109.134C206.85 108.436 204.62 108.904 202.45 109.696C202.254 108.572 201.88 107.38 201.599 106.239C205.446 104.425 208.782 100.739 210.714 94.7192C212.271 89.8573 212.126 86.5879 210.058 84.7315C212.343 78.7817 213.776 72.5383 214.313 66.1872C218.969 62.0322 221.164 55.6889 220.024 46.2294L220.032 46.2463ZM19.2868 84.9529C25.8568 87.8819 29.8823 95.1703 38.9121 93.8761C42.0012 98.491 42.6991 104.502 49.38 104.945L50.3756 108.904C44.3077 111.101 39.5588 113.945 36.8355 117.768C35.6013 118.27 29.9418 119.47 25.6441 123.396C21.4713 119.369 17.7969 114.855 14.6996 109.951C9.15794 101.5 6.20558 91.6124 6.20558 81.5046C6.20558 71.3968 9.15794 61.5093 14.6996 53.0581C15.6528 51.5338 16.6911 50.0354 17.7889 48.5539C17.8911 48.0343 17.9847 47.515 18.0868 46.9957C17.7123 48.9369 17.3294 50.9207 16.9209 52.9557C15.6868 59.0095 13.423 65.7274 12.4528 71.0149C11.006 78.831 11.8316 80.1422 19.2868 84.9529ZM29.244 89.4657C32.5205 90.2064 34.3505 89.5508 35.2949 88.0524C39.1759 93.5952 31.4907 92.1732 29.244 89.4657ZM45.8054 81.5558C39.5332 79.7848 39.9588 70.7339 43.363 69.4227C42.947 73.6203 43.7978 77.8465 45.8054 81.5558ZM91.0814 53.8669C97.3621 56.1147 103.251 63.4541 103.66 66.7407C103.754 67.4898 103.932 68.7755 103.107 68.9799C102.571 69.1162 102.171 66.7152 101.405 65.2337C98.0599 59.0693 85.3452 56.5575 79.6179 56.3275C68.2989 55.8591 53.9499 59.3246 49.6608 68.052C48.5034 70.3932 47.3716 77.673 46.9801 81.7346C45.1964 73.5503 44.9854 65.1015 46.3587 56.8385C46.9798 53.0664 44.6566 56.3445 45.7546 53.1857C52.6393 33.1684 83.5667 31.5164 95.541 40.9077C96.392 41.572 102.962 47.8557 103.132 51.704C96.1791 42.832 89.9154 48.8688 91.0559 53.8669H91.0814ZM104.468 73.4501C104.911 73.0924 105.243 73.2968 105.319 73.6459C106.036 77.3097 105.823 81.0949 104.698 84.655C103.66 84.4336 103.209 83.9824 103.039 83.4119C102.596 82.0412 104.426 75.9107 104.443 73.484L104.468 73.4501ZM48.1203 84.7232V84.6636C48.7161 79.5548 49.1757 70.1039 53.2268 66.5193C57.7116 62.5175 67.9074 59.7758 76.5796 59.4267C82.1198 59.2053 89.3452 59.9886 94.5707 62.4068C99.328 64.6034 102.63 68.1285 99.8899 73.2457C100.741 74.378 101.83 75.9363 101.643 76.7109C101.413 77.1028 99.6344 74.378 93.3282 73.4671C91.6772 73.2201 84.7071 73.6117 83.8389 74.1908C83.7029 74.3199 83.6011 74.4809 83.543 74.6592C83.4851 74.8378 83.4727 75.028 83.5072 75.2125C83.5871 75.5812 83.799 75.9082 84.1027 76.1321C84.5284 76.413 89.6176 75.6809 93.0218 75.8342C96.8772 76.0044 100.298 77.307 101.354 78.6524C101.354 80.0744 101.217 81.7004 99.6516 82.8584C99.4898 82.9861 98.9963 82.8072 98.8431 82.6796C98.1703 82.1268 97.683 81.381 97.4471 80.5425C97.2089 79.9125 96.7323 79.8529 95.6261 79.7848C92.4346 79.589 88.0771 80.5767 86.0005 79.3759C85.3199 78.9843 83.5497 79.9039 82.4092 81.0023C80.7923 82.5605 82.0348 85.5915 84.4007 86.4686C84.8603 86.6388 85.3964 86.5367 85.7709 86.809C86.9878 87.7116 89.7964 89.3124 95.4642 88.4184C95.6769 88.3589 95.6344 88.1119 95.4642 88.1119C95.2941 88.1119 94.9452 88.1119 94.6132 88.1628C93.7622 88.2482 88.1708 88.1628 87.6348 86.5111C87.5241 86.1451 87.6348 85.8897 88.2475 85.915C90.8006 87.0135 95.9069 86.9028 98.6899 85.915C99.4473 85.6511 99.9749 86.4772 100.741 86.673C101.78 87.0423 102.66 87.758 103.235 88.6994C104.966 91.046 105.878 93.8971 105.83 96.8137C105.249 101.893 103.849 106.844 101.685 111.475C100.111 114.58 98.1049 117.447 95.7281 119.99C90.2899 125.95 84.4261 130.565 76.2646 130.369C71.4987 130.25 68.6052 127.968 65.7883 126.384C61.4946 124.085 57.8726 120.707 55.2778 116.584C50.9203 109.679 48.0864 100.364 47.4141 89.8829L47.2948 87.3286C45.8822 86.3748 45.3801 84.6889 43.0396 84.4678C41.6014 84.3399 40.7504 85.2767 39.5674 85.4725C37.8653 85.7534 38.1886 88.7163 39.7631 90.7087C39.8737 90.8534 39.3035 91.1429 39.0141 91.0322C38.2761 90.4146 37.6986 89.6273 37.3311 88.7376C36.9634 87.8479 36.8169 86.8823 36.9036 85.9237C37.5333 82.6712 42.1544 80.5425 48.0947 84.7571L48.1203 84.7232ZM94.3154 81.9219C95.0303 82.1433 95.9664 83.0203 95.9408 83.3607C95.9155 83.7015 95.3622 84.5782 93.9496 84.8083C94.2411 84.3935 94.4272 83.9137 94.491 83.4106C94.5548 82.9074 94.4945 82.3965 94.3154 81.9219ZM93.6346 82.7733C93.6346 83.1735 93.4388 83.497 93.2006 83.497C92.9623 83.497 92.6729 83.1649 92.6729 82.7647C92.6626 82.6036 92.7103 82.4439 92.8069 82.3146C92.9036 82.185 93.0431 82.0942 93.2006 82.0581C93.4132 82.0665 93.609 82.3816 93.609 82.7819L93.6346 82.7733ZM91.1496 83.131C91.107 83.6503 90.7325 84.1952 90.2388 84.1866C90.0118 84.1287 89.8115 83.9951 89.6707 83.8076C89.5299 83.6204 89.4572 83.3906 89.4644 83.1566C89.4424 82.9026 89.518 82.6499 89.6763 82.4506C89.8346 82.251 90.0635 82.1196 90.3155 82.0837C90.561 82.1196 90.7831 82.2499 90.9342 82.4474C91.0849 82.6445 91.1531 82.8929 91.124 83.1393L91.1496 83.131ZM88.5964 84.9955C87.915 84.9486 87.2538 84.7447 86.6644 84.3997C86.0859 84.1015 85.8134 83.8375 86.0772 83.3268C86.7921 81.7772 88.8091 81.5132 88.4433 81.9305C87.7707 82.6968 88.0006 84.6124 88.5878 85.0041L88.5964 84.9955ZM120.085 46.9275C119.657 43.3255 118.873 39.7746 117.745 36.3271C117.804 36.5315 117.855 36.7187 117.915 36.9146C120.749 36.0631 124.502 36.2506 130.409 37.0083C138.672 38.0725 151.293 34.5561 156.527 34.3433V34.7775C147.583 36.2334 137.625 40.0989 134.902 49.8735C134.902 49.9416 135.523 50.7249 136.111 49.6863C142.357 39.0007 153.727 35.961 167.012 36.872C182.816 37.9535 200.075 46.238 207.437 59.1627C202.56 54.0541 198.926 50.4696 190.935 47.3108C184.731 44.9268 180.484 54.4883 182.425 60.8656C189.31 64.9272 190.663 65.2081 194.339 71.5003C194.544 71.8493 193.624 72.9478 193.122 73.2882C192.271 73.8418 192.144 73.6968 191.191 72.7773C179.021 61.0361 166.51 57.0001 155.506 57.0596C147.897 57.0596 140.604 58.0048 136.4 64.6376C135.153 66.8684 134.195 69.2487 133.549 71.7217C133.404 72.6709 133.342 73.6308 133.362 74.5908L133.174 74.5229C131.94 69.8825 132.732 62.1768 134.025 55.8847C134.247 54.7779 133.328 55.3398 133.328 55.3484C131.157 62.4494 130.162 67.7282 131.285 73.2287C127.77 71.4151 123.932 69.0225 120.46 67.0217C119.226 66.1702 117.753 66.3149 115.447 66.0253C114.758 65.9402 114.094 65.8381 113.438 65.7188C118.706 59.4779 120.46 51.687 120.06 46.9362L120.085 46.9275ZM198.509 97.8523C198.399 96.8307 199.063 95.7917 199.412 96.8137C199.626 97.3047 199.894 97.7702 200.212 98.2014C200.354 98.7062 200.295 99.2459 200.047 99.7082C199.8 100.17 199.383 100.518 198.884 100.679C197.795 101.062 199.412 102.544 201.173 102.169C202.458 101.897 203.956 100.747 205.182 98.8656C206.16 97.2393 207.641 95.9622 207.301 92.9735C207.156 91.7646 208.152 91.5602 208.152 90.6918C208.271 88.4268 203.131 87.3795 201.199 87.0304C200.595 86.9197 200.186 87.3286 199.769 87.3542C198.407 87.4393 198.986 89.1847 198.067 89.8317C196.476 86.6304 199.88 85.6936 198.748 84.3229C197.144 81.4543 195.253 78.7556 193.105 76.2684C195.84 78.7063 198.297 81.4389 200.433 84.4166C206.305 84.3145 206.569 84.9103 208.092 86.2641C208.578 86.6525 208.98 87.136 209.273 87.685C209.565 88.2339 209.743 88.837 209.794 89.4571C210.058 94.1996 208.092 99.5808 204.339 102.731C202.195 104.502 196.263 107.993 195.088 104.204C194.714 102.603 195.939 102.569 196.212 101.233C196.595 99.6233 198.782 100.449 198.509 97.8523ZM204.671 93.9868C203.369 91.2281 201.505 92.0539 200.075 91.773C201.778 91.5516 204.126 89.0824 205.071 91.1174C205.511 92.3726 205.796 93.6762 205.922 95.0001C206.092 96.2771 204.475 97.8184 202.637 99.1891C204.203 97.1372 205.335 95.3662 204.671 93.9612V93.9868ZM208.458 83.7268C207.7 83.4092 206.906 83.1889 206.092 83.0712C208.756 78.1859 210.62 72.9055 211.616 67.4303C211.301 73.7055 210.322 79.2143 208.458 83.7015V83.7268ZM182.782 125.448C176.391 128.709 163.497 135.009 162.868 132.634C162.503 131.55 162.042 130.501 161.489 129.5C173.948 129.45 184.467 119.615 190.578 109.602C192.441 111.041 190.578 111.876 190.697 113.638C190.969 119.47 187.582 122.944 182.825 125.397L182.782 125.448ZM136.868 86.8772C136.868 86.0257 136.638 83.8973 136.519 82.8501C136.078 81.1655 135.509 79.5176 134.817 77.9201C135.983 77.0961 137.344 76.5913 138.766 76.4556C140.74 76.3023 141.949 76.9749 143.021 76.796C143.262 76.7203 143.48 76.5881 143.66 76.4103C143.839 76.2325 143.973 76.0146 144.051 75.7744C144.357 75.0336 143.583 74.3867 142.893 74.0715C140.298 72.8454 136.825 73.3989 134.383 76.3791C134.06 74.5143 133.983 72.9731 134.425 72.0621C137.396 63.3434 144.732 60.2612 155.565 60.1418C161.276 60.0909 166.629 62.3387 171.693 66.8003C173.123 67.4389 174.067 68.7076 173.727 71.2107C173.608 72.1217 173.863 73.2457 173.242 74.7271C172.255 72.8966 166.433 72.1728 163.455 72.3517C161.872 72.4624 158.689 73.382 159.914 75.2464C160.57 76.2511 162.621 75.783 162.995 75.766C165.548 75.6553 170.808 75.6809 172.57 77.8861C173.642 78.9417 173.872 79.8274 173.676 80.2955C173.59 80.4582 173.461 80.5942 173.304 80.6887C173.146 80.7836 172.966 80.8329 172.782 80.832C171.582 80.7127 164.451 78.0052 161.267 81.8623C159.565 83.9738 160.51 86.3409 163.089 86.5879C163.523 86.6304 163.463 86.3492 163.216 86.162C162.97 85.9748 162.11 85.6258 162.221 84.9955C162.663 82.3903 165.267 82.1433 166.587 82.3816C164.195 85.0636 166.587 88.827 170.953 87.1581C171.089 87.2349 171.055 87.7968 170.672 87.95C169.523 88.3928 168.382 88.3672 166.51 87.7884C166.246 87.7116 166.433 88.1119 166.587 88.2226C167.578 88.7963 168.693 89.1236 169.838 89.1761C172.612 89.2187 174.748 88.4949 174.595 85.4383C180.416 85.6853 184.671 86.8263 185.327 89.9255C186.739 96.6262 187.182 102.986 185.633 108.223C181.199 119.138 174.952 125.099 167.335 127.134C160.034 128.3 153.948 127.9 149.549 124.536C148.773 123.946 148.182 123.145 147.846 122.229C147.568 121.39 147.072 120.641 146.408 120.058C140.757 115.639 138.34 110.547 137.276 103.583C136.85 100.782 136.58 97.959 136.468 95.1278C136.349 92.4884 137.004 89.738 136.868 86.8772ZM169.71 84.391C169.71 84.6294 169.514 84.9615 169.352 84.9615C169.191 84.9615 168.935 84.6294 168.935 84.391C168.935 84.1526 169.174 83.8631 169.344 83.8631C169.514 83.8631 169.744 84.1613 169.744 84.391H169.71ZM167.54 84.391C167.54 84.7827 167.31 85.1062 167.021 85.1062C166.731 85.1062 166.502 84.7827 166.502 84.391C166.502 83.9994 166.731 83.6673 167.021 83.6673C167.31 83.6673 167.574 83.9994 167.574 84.3997L167.54 84.391ZM183.174 71.3384C183.523 70.0358 187.429 74.3271 188.705 77.537C187.905 77.3218 187.053 77.4002 186.305 77.7582C183.114 79.1206 182.467 74.1141 183.208 71.347L183.174 71.3384ZM107.549 57.3834C110.697 55.6851 113.539 53.4721 115.958 50.8356C114.996 56.2593 112.553 60.6698 107.549 62.5601C107.787 61.1126 107.481 58.8562 107.583 57.3917L107.549 57.3834ZM114.358 38.5323C114.358 38.7451 114.919 38.7537 114.894 38.9581C114.613 41.3931 112.843 49.7544 107.302 51.2615C106.613 50.6398 105.703 49.1414 106.315 48.8006C107.719 48.026 108.451 48.4602 110.451 46.4933C112.009 44.9863 112.732 44.1349 114.375 38.5409L114.358 38.5323ZM111.336 26.8081C108.311 23.386 104.685 20.5466 100.639 18.4298C95.2004 15.4753 86.2986 13.0231 78.9539 11.5246C92.3439 8.1398 106.104 6.44362 119.915 6.47551C129.497 6.46509 139.063 7.26833 148.51 8.87659C145.106 10.8945 141.489 12.9891 138.119 15.1091C132.204 18.847 125.992 22.2102 119.906 25.6754C117.771 26.8717 115.72 28.2144 113.77 29.6945C112.928 28.7324 112.094 27.7872 111.336 26.8081ZM106.783 97.2818C110.077 96.8646 112.298 92.5563 111.711 90.7939C111.285 89.5252 111.073 87.4988 112.298 86.5367C115.787 83.8461 115.038 90.6406 112.434 95.051C112.341 95.2129 112.587 95.5194 112.766 95.281C115.073 92.4458 115.6 88.5122 116.383 87.5584C116.996 86.809 117.498 84.6464 116.128 84.7571C114.596 84.8764 113.013 82.884 111.49 83.6759C109.371 84.4592 108.937 86.7325 108.468 88.6908C107.617 88.5461 107.762 87.1411 108.034 86.3067C108.826 83.9143 109.66 82.1346 112.502 81.5046C114.332 81.0618 115.226 82.7138 116.562 82.884C117.898 83.0542 118.043 84.4678 118.17 85.6767C118.298 86.8858 117.898 87.3795 117.37 88.3672C116.693 89.4261 116.123 90.5501 115.668 91.7221C114.704 94.8094 113.113 97.6646 110.996 100.109C109.703 101.616 108.443 103.25 105.753 103.302C106.249 101.326 106.579 99.3125 106.741 97.2818H106.783ZM100.979 117.231C100.894 117.827 100.8 118.721 100.724 119.479C97.26 124.979 90.3919 132.498 83.1496 135.026C70.086 139.582 62.7753 135.026 58.1798 129.645C53.7009 124.368 51.1392 117.73 50.9119 110.811C51.0735 111.245 54.682 120.79 59.7799 124.886C64.8775 128.981 71.3371 134.32 82.4006 131.604C90.2899 129.679 96.5708 121.821 100.383 116.278C100.579 115.988 100.766 115.724 100.937 115.426C101 116.026 101 116.631 100.937 117.231H100.979ZM45.5332 97.9205C43.2693 95.945 41.7034 93.6633 41.4652 90.6236C41.2013 87.3286 43.6863 87.8649 44.1289 89.6954C41.8311 91.3986 43.9588 98.0907 47.4566 96.7881C47.7724 98.9542 48.2358 101.096 48.8437 103.2C43.9076 102.569 42.495 97.0777 39.7375 93.3993C38.8865 92.2497 39.8568 92.0114 40.2652 92.4711C40.8354 93.1098 40.8354 93.8079 41.4991 94.3615C42.334 94.9608 43.0329 95.7295 43.5504 96.6179C45.2524 100.211 46.0184 98.857 45.4907 97.9205H45.5332ZM38.2907 119.564C40.3759 115.843 45.2352 112.752 49.1843 111.901C55.7627 146.81 85.1751 148.735 101.66 120.833C101.958 120.322 102.46 117.853 102.749 117.325C103.694 117.325 109.43 119.028 110.358 124.52C131.055 132.608 136.842 146.947 138.885 155.452C132.592 156.155 126.265 156.51 119.932 156.517C105.17 156.562 90.4684 154.623 76.2221 150.753C63.0787 147.243 50.5746 141.671 39.1759 134.243C35.0451 131.502 31.1326 128.445 27.4738 125.099C30.5632 121.991 37.0396 120.058 38.2481 119.564H38.2907ZM141.549 155.146C139.072 148.147 135.319 132.498 111.532 122.732C110.034 117.989 105.388 115.741 102.315 115.367C102.405 114.666 102.42 113.958 102.358 113.255C103.583 111.067 104.06 109.33 105.328 105.345C107.124 105.073 108.732 104.8 109.941 103.438C111.351 101.889 112.619 100.217 113.728 98.4398C115.43 95.5194 116.494 92.0286 117.983 89.6445C118.565 88.733 118.929 87.6995 119.047 86.6248C119.165 85.5498 119.034 84.4621 118.664 83.4459C118.222 82.3391 116.034 81.3002 115.328 80.7895C113.845 79.7778 112.062 79.3005 110.272 79.4357C109.56 79.5278 108.88 79.7883 108.288 80.1953C107.696 80.6026 107.209 81.1448 106.868 81.7772C107.277 78.6268 107.813 73.6459 107.839 70.7083C109.429 69.6487 110.899 68.418 112.221 67.0387C113.387 67.3026 114.553 67.4898 115.626 67.6261C117.821 67.8987 119.404 67.7624 120.46 68.4775C122.238 69.7376 124.715 71.2533 126.553 72.4963C128.391 73.7394 131.115 75.2976 132.63 76.4216C133.115 78.831 134.97 82.0495 135.081 83.0203C135.293 84.2943 135.435 85.5792 135.506 86.8688C135.506 89.5594 134.928 92.4884 135.03 95.1448C135.19 97.9692 135.503 100.783 135.966 103.574C136.817 110.496 139.821 116.703 145.327 121.003C145.83 121.515 146.191 122.149 146.374 122.842C147.025 124.285 148.123 125.479 149.506 126.248C150.293 126.753 151.135 127.164 152.017 127.474C148.944 129.918 147.148 132.693 147.259 134.72C147.421 137.598 147.94 139.335 149.395 140.74C148.953 141.548 142.936 143.737 142.127 155.061L141.549 155.146ZM150.91 142.025C151.427 142.338 151.978 142.589 152.553 142.775L152.842 142.723C153.753 139.879 149.795 142.195 149.336 134.89C149.2 132.523 152.153 130.446 153.931 128.257C155.96 128.94 158.074 129.332 160.212 129.424C160.968 130.661 161.409 132.064 161.497 133.511C162.714 137.445 171.148 133.877 177.361 130.778C188.212 125.371 195.046 121.744 202.152 112.046C204.22 111.143 205.743 110.769 206.509 111.195C207.275 111.62 216.722 116.065 219.36 117.802C213.928 124.16 207.624 129.718 200.637 134.311C189.241 141.739 176.74 147.311 163.599 150.821C157.231 152.565 150.759 153.905 144.221 154.831C144.527 145.303 150.817 142.34 150.944 142.025H150.91ZM212.016 46.3315C211.9 47.4296 211.674 48.5135 211.343 49.567C209.925 50.9463 208.397 52.208 206.773 53.339C206.348 52.7685 205.922 52.2066 205.42 51.6361C208.12 49.3657 210.076 46.3374 211.037 42.9427C211.552 44.0091 211.883 45.1549 212.016 46.3315ZM206.527 30.648L207.156 40.4652C205.522 44.0667 203.582 46.4252 201.318 47.5662C200.722 47.0552 200.109 46.5445 199.471 46.0591C204.441 43.3599 204.458 40.5161 206.527 30.648ZM172.212 6.96084C187.42 8.34869 195.02 16.0032 194.654 28.3747C197.275 35.0584 197.701 40.5333 195.65 43.3855C186.748 38.379 183.505 37.1446 174.016 35.1435C184.62 26.3311 178.118 22.9254 169.208 18.3787C161.931 14.6579 158.144 12.376 150.689 20.933C142.638 30.1968 133.974 33.3044 128.323 33.2279C124.962 33.1767 120.928 33.1853 117.345 35.2203C116.77 33.8372 116.018 32.5348 115.107 31.3462C116.732 30.2138 118.511 29.1068 120.562 27.9405C125.498 25.1305 130.315 22.1761 135.106 19.1365C138.298 17.1015 141.915 15.058 145.319 13.1764C153.761 8.37422 163.948 -1.07678 172.212 6.96084ZM75.5923 9.4726C90.1171 5.51629 105.108 3.53448 120.162 3.58062C130.935 3.56839 141.686 4.56899 152.272 6.56919C151.421 7.08005 150.57 7.59939 149.719 8.11879C139.86 6.37173 129.867 5.49988 119.855 5.51338C105.284 5.47125 90.771 7.34922 76.6902 11.0988C75.2092 10.8264 73.8135 10.588 72.5627 10.4092H72.4178C73.4988 10.0686 74.5456 9.77061 75.5923 9.4726ZM23.8144 32.9297C27.3122 25.6841 35.0567 22.7806 39.9332 17.2633C46.6481 9.65139 63.7626 9.08944 80.7836 13.8575C85.4306 15.1688 90.1453 15.6371 95.5493 18.1147C122.4 30.5885 106.349 45.5738 103.302 45.3268C102.622 45.0202 102.451 44.7819 102.562 44.5691C103.413 42.6278 105.209 42.7469 106.469 37.102C106.604 36.2506 105.873 36.2506 105.49 36.9315C104.894 42.4234 100.622 42.7641 99.8982 41.9553C97.7592 39.7619 95.2787 37.9303 92.5536 36.5315C94.0004 34.8287 93.9323 33.8409 94.3494 32.2744C94.5876 31.3718 94.8431 31.0054 94.1706 30.7417C93.6857 30.5543 93.49 31.278 93.3707 31.6953C92.6217 34.2496 91.5324 36.1569 90.0516 35.5864C88.7644 35.0159 87.446 34.5184 86.1028 34.0963C86.6421 33.2704 86.9972 32.3379 87.1439 31.3623C87.2907 30.3867 87.2261 29.3909 86.9539 28.4428C86.8857 28.1021 86.8602 28.1958 86.4943 28.1193C86.1284 28.0425 86.1537 27.9574 86.0686 28.2726C84.4177 34.2326 80.2985 33.1937 75.2348 33.2791C74.1527 33.3138 73.0699 33.2454 72.0008 33.0746C71.1497 32.93 72.5541 30.6906 71.7286 27.7616C71.6605 27.5232 71.1158 24.7134 70.4519 24.8667C69.4051 25.0966 70.6732 26.1269 70.3243 28.7237C70.1762 30.2372 69.7401 31.7082 69.0392 33.0577C68.0657 33.136 67.1083 33.3542 66.1967 33.7046C66.8776 32.0783 67.8988 29.4475 65.5244 27.2337C63.3286 25.9055 61.269 24.5857 59.4479 23.266C59.0139 22.676 58.3756 22.2695 57.6575 22.1262C56.9395 21.9829 56.194 22.113 55.5669 22.4911C48.9032 27.9488 47.8056 35.9185 34.2142 40.4735C32.5886 41.0184 32.5122 43.0278 34.1717 42.5683C43.1077 40.2438 46.6139 43.6751 54.5969 34.6242C56.0437 35.5268 57.6182 36.0631 60.9542 35.6884C57.0054 36.7955 51.6607 38.7963 48.4183 42.6192C46.6395 44.7223 47.1416 49.022 44.0097 51.9085C43.0106 52.8377 42.2198 53.9688 41.6903 55.2266C41.1604 56.4848 40.9038 57.8407 40.9375 59.2053C37.6523 61.6489 36.2822 64.859 35.4142 68.0773C30.9633 84.6889 16.7336 85.038 13.8996 77.1198C12.9209 72.5133 16.9123 63.5648 18.6655 53.8327C20.0868 45.8461 21.3889 37.9618 23.8144 32.9297ZM12.3847 51.7296C14.3297 48.6037 16.512 45.632 18.9123 42.8406C18.674 44.0156 18.4357 45.2161 18.1974 46.4422C16.6482 48.3993 15.2077 50.4402 13.8826 52.5557C8.24454 61.157 5.24098 71.2188 5.24098 81.5046C5.24098 91.7905 8.24454 101.852 13.8826 110.454C19.6612 119.709 28.1121 128.053 38.5631 135.052C50.0439 142.539 62.6404 148.154 75.8817 151.689C104.685 159.42 135.017 159.42 163.821 151.689C177.061 148.153 189.658 142.537 201.139 135.052C211.633 128.053 220.084 119.726 225.82 110.454C231.458 101.852 234.461 91.7905 234.461 81.5046C234.461 71.2188 231.458 61.157 225.82 52.5557C224.154 49.877 222.306 47.3168 220.288 44.8926L220.237 45.0714C220.484 44.1179 220.713 43.1727 220.918 42.2362C220.918 42.2362 220.918 42.2871 220.918 42.3127C223.486 45.2427 225.814 48.3748 227.879 51.6787C233.618 60.5448 236.671 70.8823 236.671 81.4451C236.671 92.0079 233.618 102.345 227.879 111.212C221.964 120.782 213.267 129.39 202.458 136.601C190.831 144.188 178.074 149.881 164.663 153.469C135.469 161.324 104.719 161.324 75.5242 153.469C62.1171 149.879 49.3633 144.186 37.7377 136.601C26.9291 129.39 18.2315 120.782 12.3167 111.212C6.573 102.347 3.51672 92.0089 3.51672 81.4451C3.51672 70.881 6.573 60.5429 12.3167 51.6787L12.3847 51.7296ZM221.377 40.4991C221.374 40.553 221.374 40.6071 221.377 40.661C221.372 40.5929 221.372 40.5247 221.377 40.4566V40.4991Z" fill="#5C403F"/>
</svg>
